<?xml version="1.0" encoding="UTF-8"?>
<!DOCTYPE svg PUBLIC "-//W3C//DTD SVG 1.1//EN" "http://www.w3.org/Graphics/SVG/1.1/DTD/svg11.dtd">
<svg xmlns="http://www.w3.org/2000/svg" version="1.1" width="1842px" height="1842px" style="shape-rendering:geometricPrecision; text-rendering:geometricPrecision; image-rendering:optimizeQuality; fill-rule:evenodd; clip-rule:evenodd" xmlns:xlink="http://www.w3.org/1999/xlink">
<g><path style="opacity:0.944" fill="#634e9e" d="M 1184.5,355.5 C 1183.47,354.645 1182.3,353.978 1181,353.5C 1164.79,361.691 1148.13,362.691 1131,356.5C 1129.89,356.585 1128.89,356.919 1128,357.5C 1127.8,359.382 1127.3,361.048 1126.5,362.5C 1126.5,361.167 1126.5,359.833 1126.5,358.5C 1121.19,359.068 1116.19,358.235 1111.5,356C 1108.17,355.667 1104.83,355.333 1101.5,355C 1100.33,354.581 1099.33,353.915 1098.5,353C 1086.71,350.468 1074.71,349.135 1062.5,349C 1061.67,348.085 1060.67,347.419 1059.5,347C 1051.96,347.129 1044.63,346.129 1037.5,344C 998.229,341.451 958.896,339.285 919.5,337.5C 880.104,339.285 840.771,341.451 801.5,344C 794.374,346.129 787.041,347.129 779.5,347C 778.328,347.419 777.328,348.085 776.5,349C 764.29,349.135 752.29,350.468 740.5,353C 739.672,353.915 738.672,354.581 737.5,355C 734.167,355.333 730.833,355.667 727.5,356C 722.813,358.235 717.813,359.068 712.5,358.5C 712.5,359.5 712.5,360.5 712.5,361.5C 711.833,359.833 711.167,358.167 710.5,356.5C 709.551,355.848 708.385,355.514 707,355.5C 695.013,359.068 682.846,359.902 670.5,358C 667.978,356.659 665.311,355.826 662.5,355.5C 659.668,353.353 657.001,353.353 654.5,355.5C 652.278,353.602 649.945,351.769 647.5,350C 646.552,349.517 645.552,349.351 644.5,349.5C 644.762,348.022 644.429,346.689 643.5,345.5C 642.914,345.709 642.414,346.043 642,346.5C 641.51,345.207 641.343,343.873 641.5,342.5C 640.5,342.5 639.5,342.5 638.5,342.5C 638.5,340.833 638.5,339.167 638.5,337.5C 637.5,337.5 636.5,337.5 635.5,337.5C 635.5,335.833 635.5,334.167 635.5,332.5C 634.5,332.5 633.5,332.5 632.5,332.5C 632.664,329.813 632.497,327.146 632,324.5C 631.333,323.167 630.667,323.167 630,324.5C 629.333,314.5 629.333,304.5 630,294.5C 630.667,295.833 631.333,295.833 632,294.5C 632.497,291.854 632.664,289.187 632.5,286.5C 633.5,286.5 634.5,286.5 635.5,286.5C 635.337,284.143 635.503,281.81 636,279.5C 636.414,279.957 636.914,280.291 637.5,280.5C 638.391,277.204 639.725,274.537 641.5,272.5C 642.5,272.5 643.5,272.5 644.5,272.5C 644.5,271.5 644.5,270.5 644.5,269.5C 649.455,265.698 654.788,262.198 660.5,259C 668.226,255.755 676.226,253.755 684.5,253C 685.833,252.333 687.167,251.667 688.5,251C 703.978,248.798 719.312,245.798 734.5,242C 757.968,239.749 781.301,236.749 804.5,233C 813.833,232.667 823.167,232.333 832.5,232C 836.276,231.408 839.943,230.408 843.5,229C 894.167,228.333 944.833,228.333 995.5,229C 999.057,230.408 1002.72,231.408 1006.5,232C 1015.83,232.333 1025.17,232.667 1034.5,233C 1057.7,236.749 1081.03,239.749 1104.5,242C 1119.69,245.798 1135.02,248.798 1150.5,251C 1155.24,253.072 1160.24,254.072 1165.5,254C 1175.39,256.895 1184.06,261.895 1191.5,269C 1192.45,269.483 1193.45,269.649 1194.5,269.5C 1194.5,270.5 1194.5,271.5 1194.5,272.5C 1195.5,272.5 1196.5,272.5 1197.5,272.5C 1199.28,274.537 1200.61,277.204 1201.5,280.5C 1202.09,280.291 1202.59,279.957 1203,279.5C 1203.5,281.81 1203.66,284.143 1203.5,286.5C 1204.5,286.5 1205.5,286.5 1206.5,286.5C 1206.34,289.187 1206.5,291.854 1207,294.5C 1207.67,295.833 1208.33,295.833 1209,294.5C 1209.67,304.5 1209.67,314.5 1209,324.5C 1208.33,323.167 1207.67,323.167 1207,324.5C 1206.5,327.146 1206.34,329.813 1206.5,332.5C 1205.5,332.5 1204.5,332.5 1203.5,332.5C 1203.66,334.527 1203.5,336.527 1203,338.5C 1202.33,337.167 1201.67,337.167 1201,338.5C 1199.94,340.76 1198.77,343.093 1197.5,345.5C 1196.5,345.5 1195.5,345.5 1194.5,345.5C 1194.5,346.5 1194.5,347.5 1194.5,348.5C 1193.45,348.351 1192.45,348.517 1191.5,349C 1189.65,351.683 1187.32,353.85 1184.5,355.5 Z"/></g>
<g><path style="opacity:0.905" fill="#4c3f80" d="M 1184.5,357.5 C 1184.5,392.167 1184.5,426.833 1184.5,461.5C 1182.95,461.821 1182.29,462.821 1182.5,464.5C 1164.49,464.833 1146.49,464.5 1128.5,463.5C 1128.14,462.478 1127.48,461.811 1126.5,461.5C 1126.5,428.833 1126.5,396.167 1126.5,363.5C 1128.18,362.253 1129.51,360.586 1130.5,358.5C 1138.45,360.012 1146.45,361.345 1154.5,362.5C 1160.78,361.272 1167.11,360.439 1173.5,360C 1175.98,358.502 1178.48,357.002 1181,355.5C 1182.3,355.978 1183.47,356.645 1184.5,357.5 Z"/></g>
<g><path style="opacity:0.904" fill="#4c3f80" d="M 712.5,363.5 C 712.5,396.167 712.5,428.833 712.5,461.5C 710.952,461.821 710.285,462.821 710.5,464.5C 692.5,464.5 674.5,464.5 656.5,464.5C 656.573,462.973 655.906,461.973 654.5,461.5C 654.5,426.833 654.5,392.167 654.5,357.5C 655.583,357.461 656.583,357.127 657.5,356.5C 674.568,362.482 691.901,363.149 709.5,358.5C 708.916,361.285 709.916,362.952 712.5,363.5 Z"/></g>
<g><path style="opacity:1" fill="#57468e" d="M 662.5,355.5 C 668.309,359.135 674.809,360.802 682,360.5C 691.686,360.212 701.186,358.879 710.5,356.5C 711.167,358.167 711.833,359.833 712.5,361.5C 712.5,362.167 712.5,362.833 712.5,363.5C 709.916,362.952 708.916,361.285 709.5,358.5C 691.901,363.149 674.568,362.482 657.5,356.5C 656.583,357.127 655.583,357.461 654.5,357.5C 654.5,356.833 654.5,356.167 654.5,355.5C 657.001,353.353 659.668,353.353 662.5,355.5 Z"/></g>
<g><path style="opacity:1" fill="#5f4c99" d="M 662.5,355.5 C 665.311,355.826 667.978,356.659 670.5,358C 682.846,359.902 695.013,359.068 707,355.5C 708.385,355.514 709.551,355.848 710.5,356.5C 701.186,358.879 691.686,360.212 682,360.5C 674.809,360.802 668.309,359.135 662.5,355.5 Z"/></g>
<g><path style="opacity:1" fill="#56458c" d="M 1184.5,355.5 C 1184.5,356.167 1184.5,356.833 1184.5,357.5C 1183.47,356.645 1182.3,355.978 1181,355.5C 1178.48,357.002 1175.98,358.502 1173.5,360C 1167.11,360.439 1160.78,361.272 1154.5,362.5C 1146.45,361.345 1138.45,360.012 1130.5,358.5C 1129.51,360.586 1128.18,362.253 1126.5,363.5C 1126.5,363.167 1126.5,362.833 1126.5,362.5C 1127.3,361.048 1127.8,359.382 1128,357.5C 1128.89,356.919 1129.89,356.585 1131,356.5C 1148.13,362.691 1164.79,361.691 1181,353.5C 1182.3,353.978 1183.47,354.645 1184.5,355.5 Z"/></g>
<g><path style="opacity:0.993" fill="#7153ae" d="M 654.5,462.5 C 654.5,462.833 654.5,463.167 654.5,463.5C 654.5,465.167 654.5,466.833 654.5,468.5C 673.008,468.83 691.341,468.497 709.5,467.5C 709.5,467.167 709.5,466.833 709.5,466.5C 710.857,465.41 711.857,464.076 712.5,462.5C 850.295,462.168 988.295,462.502 1126.5,463.5C 1127.27,464.694 1128.27,465.694 1129.5,466.5C 1147.47,468.487 1165.8,469.154 1184.5,468.5C 1184.5,466.5 1184.5,464.5 1184.5,462.5C 1341.63,462.337 1498.96,462.504 1656.5,463C 1663.87,464.767 1671.21,466.601 1678.5,468.5C 1678.5,469.5 1678.5,470.5 1678.5,471.5C 1683,471.821 1686.33,473.988 1688.5,478C 1689.45,478.483 1690.45,478.649 1691.5,478.5C 1691.5,479.5 1691.5,480.5 1691.5,481.5C 1692.5,481.5 1693.5,481.5 1694.5,481.5C 1696.28,483.537 1697.61,486.204 1698.5,489.5C 1699.09,489.291 1699.59,488.957 1700,488.5C 1700.33,490.5 1700.67,492.5 1701,494.5C 1701.67,495.833 1702.33,495.833 1703,494.5C 1705.45,513.748 1706.12,533.082 1705,552.5C 1703.7,566.073 1703.04,579.739 1703,593.5C 1702.64,590.456 1701.97,590.122 1701,592.5C 1700.67,605.5 1700.33,618.5 1700,631.5C 1699.68,629.699 1699.02,629.366 1698,630.5C 1697.67,643.833 1697.33,657.167 1697,670.5C 1696.67,669.5 1696.33,668.5 1696,667.5C 1695.67,667.833 1695.33,668.167 1695,668.5C 1694.67,681.833 1694.33,695.167 1694,708.5C 1693.69,707.692 1693.19,707.025 1692.5,706.5C 1691.67,718.82 1691.17,731.153 1691,743.5C 1688.95,745.7 1687.95,748.367 1688,751.5C 1687.91,766.963 1686.74,782.296 1684.5,797.5C 1683.12,796.294 1681.95,796.627 1681,798.5C 1679.78,813.479 1678.94,828.479 1678.5,843.5C 1674.81,882.315 1671.81,921.315 1669.5,960.5C 1668.88,960.611 1668.38,960.944 1668,961.5C 1667.93,970.366 1666.6,979.033 1664,987.5C 1660.1,995.077 1657.1,1003.08 1655,1011.5C 1653.18,1014.6 1651.18,1017.6 1649,1020.5C 1648.51,1021.79 1648.34,1023.13 1648.5,1024.5C 1643.86,1028.83 1639.86,1033.83 1636.5,1039.5C 1634.96,1042.78 1633.63,1046.11 1632.5,1049.5C 1631.5,1049.41 1630.67,1049.75 1630,1050.5C 1623.59,1057.86 1617.09,1065.19 1610.5,1072.5C 1607.93,1073.75 1605.27,1074.92 1602.5,1076C 1589.68,1088.82 1574.68,1098.66 1557.5,1105.5C 1556.7,1105.96 1556.37,1106.62 1556.5,1107.5C 1549.85,1108.24 1543.52,1110.08 1537.5,1113C 1524.92,1115.2 1512.25,1117.2 1499.5,1119C 1438.5,1119.5 1377.5,1119.67 1316.5,1119.5C 1316.67,1089.16 1316.5,1058.83 1316,1028.5C 1315.29,1026.01 1314.46,1026.01 1313.5,1028.5C 1312.61,1027.89 1311.61,1027.56 1310.5,1027.5C 1310.5,1026.83 1310.17,1026.5 1309.5,1026.5C 1309.57,1024.97 1308.91,1023.97 1307.5,1023.5C 1307.5,1021.5 1306.5,1020.5 1304.5,1020.5C 1303.49,1019.33 1302.15,1018.66 1300.5,1018.5C 1300.5,1017.83 1300.5,1017.17 1300.5,1016.5C 1300.39,1015.88 1300.06,1015.38 1299.5,1015C 1277.36,1013.28 1255.36,1013.11 1233.5,1014.5C 1229.64,1014.46 1225.8,1014.8 1222,1015.5C 1220.32,1015.61 1219.15,1016.27 1218.5,1017.5C 1214.53,1019.47 1211.53,1022.47 1209.5,1026.5C 1206.98,1028.03 1205.98,1030.36 1206.5,1033.5C 1206.5,1035.83 1206.5,1038.17 1206.5,1040.5C 1205.67,1065.66 1205.17,1091 1205,1116.5C 1014.5,1115.17 824,1115.17 633.5,1116.5C 634.357,1100.52 635.023,1084.52 635.5,1068.5C 635.167,1059.17 634.833,1049.83 634.5,1040.5C 633.83,1038.71 633.163,1037.04 632.5,1035.5C 632.664,1032.81 632.497,1030.15 632,1027.5C 631.329,1026.75 630.496,1026.41 629.5,1026.5C 629.167,1026.5 628.833,1026.5 628.5,1026.5C 628.5,1026.17 628.5,1025.83 628.5,1025.5C 627.5,1022.5 625.5,1020.5 622.5,1019.5C 621.341,1017.75 619.674,1016.75 617.5,1016.5C 615.708,1015.69 613.708,1015.19 611.5,1015C 589.833,1014.33 568.167,1014.33 546.5,1015C 542.92,1014.91 539.92,1016.08 537.5,1018.5C 532.531,1020.14 529.198,1023.47 527.5,1028.5C 526.833,1028.83 526.167,1029.17 525.5,1029.5C 525.053,1026.48 524.22,1026.14 523,1028.5C 522.169,1058.67 522.336,1088.67 523.5,1118.5C 523.5,1118.83 523.5,1119.17 523.5,1119.5C 464.166,1119.67 404.832,1119.5 345.5,1119C 336.628,1117.23 327.628,1116.4 318.5,1116.5C 309.964,1114.28 301.298,1112.61 292.5,1111.5C 291.493,1110.17 290.16,1109.17 288.5,1108.5C 283.38,1107.69 278.88,1105.69 275,1102.5C 271.58,1100.9 268.08,1099.57 264.5,1098.5C 253.788,1090.63 242.788,1082.96 231.5,1075.5C 225.419,1068.75 219.085,1062.42 212.5,1056.5C 212.262,1054.6 211.262,1053.26 209.5,1052.5C 207.542,1049.21 205.209,1046.21 202.5,1043.5C 199.885,1039.93 198.052,1035.93 197,1031.5C 194.643,1029.08 192.643,1026.41 191,1023.5C 185.524,1012.23 180.357,1000.89 175.5,989.5C 175.5,988.833 175.5,988.167 175.5,987.5C 172.888,976.867 170.721,966.201 169,955.5C 168.806,946.423 168.306,937.423 167.5,928.5C 164.136,885.216 160.97,841.882 158,798.5C 157.047,796.627 155.88,796.294 154.5,797.5C 154.558,790.29 153.391,783.29 151,776.5C 150.667,766.167 150.333,755.833 150,745.5C 149.333,744.167 148.667,744.167 148,745.5C 147.667,732.833 147.333,720.167 147,707.5C 145.984,706.366 145.317,706.699 145,708.5C 144.667,695.167 144.333,681.833 144,668.5C 143.667,668.167 143.333,667.833 143,667.5C 142.667,668.5 142.333,669.5 142,670.5C 141.667,657.167 141.333,643.833 141,630.5C 139.984,629.366 139.317,629.699 139,631.5C 138.667,618.5 138.333,605.5 138,592.5C 137.026,590.122 136.359,590.456 136,593.5C 135.333,560.5 135.333,527.5 136,494.5C 136.667,495.833 137.333,495.833 138,494.5C 138.333,492.5 138.667,490.5 139,488.5C 139.414,488.957 139.914,489.291 140.5,489.5C 141.391,486.204 142.725,483.537 144.5,481.5C 145.5,481.5 146.5,481.5 147.5,481.5C 147.5,480.5 147.5,479.5 147.5,478.5C 150.442,477.012 153.109,475.012 155.5,472.5C 157.071,471.691 158.738,471.357 160.5,471.5C 160.5,470.5 160.5,469.5 160.5,468.5C 167.792,466.601 175.125,464.767 182.5,463C 340.04,462.504 497.374,462.337 654.5,462.5 Z"/></g>
<g><path style="opacity:0.998" fill="#5a4691" d="M 712.5,461.5 C 712.5,461.833 712.5,462.167 712.5,462.5C 711.857,464.076 710.857,465.41 709.5,466.5C 692.163,466.667 674.83,466.5 657.5,466C 656.944,465.617 656.611,465.117 656.5,464.5C 674.5,464.5 692.5,464.5 710.5,464.5C 710.285,462.821 710.952,461.821 712.5,461.5 Z"/></g>
<g><path style="opacity:0.998" fill="#5b4692" d="M 1126.5,461.5 C 1127.48,461.811 1128.14,462.478 1128.5,463.5C 1146.49,464.5 1164.49,464.833 1182.5,464.5C 1182.29,462.821 1182.95,461.821 1184.5,461.5C 1184.5,461.833 1184.5,462.167 1184.5,462.5C 1183.75,463.531 1183.08,464.698 1182.5,466C 1164.84,466.5 1147.17,466.667 1129.5,466.5C 1128.27,465.694 1127.27,464.694 1126.5,463.5C 1126.5,462.833 1126.5,462.167 1126.5,461.5 Z"/></g>
<g><path style="opacity:0.998" fill="#644d9e" d="M 654.5,461.5 C 655.906,461.973 656.573,462.973 656.5,464.5C 656.611,465.117 656.944,465.617 657.5,466C 674.83,466.5 692.163,466.667 709.5,466.5C 709.5,466.833 709.5,467.167 709.5,467.5C 691.83,467.667 674.164,467.5 656.5,467C 655.915,465.698 655.249,464.531 654.5,463.5C 654.5,463.167 654.5,462.833 654.5,462.5C 654.5,462.167 654.5,461.833 654.5,461.5 Z"/></g>
<g><path style="opacity:0.999" fill="#6b51a7" d="M 654.5,463.5 C 655.249,464.531 655.915,465.698 656.5,467C 674.164,467.5 691.83,467.667 709.5,467.5C 691.341,468.497 673.008,468.83 654.5,468.5C 654.5,466.833 654.5,465.167 654.5,463.5 Z"/></g>
<g><path style="opacity:0.999" fill="#694fa4" d="M 1184.5,462.5 C 1184.5,464.5 1184.5,466.5 1184.5,468.5C 1165.8,469.154 1147.47,468.487 1129.5,466.5C 1147.17,466.667 1164.84,466.5 1182.5,466C 1183.08,464.698 1183.75,463.531 1184.5,462.5 Z"/></g>
<g><path style="opacity:0.712" fill="#684ea5" d="M 1684.5,797.5 C 1684.5,800.833 1684.5,804.167 1684.5,807.5C 1683.5,807.414 1682.67,807.748 1682,808.5C 1680.8,818.784 1680.13,829.118 1680,839.5C 1679.79,841.058 1679.29,842.391 1678.5,843.5C 1678.94,828.479 1679.78,813.479 1681,798.5C 1681.95,796.627 1683.12,796.294 1684.5,797.5 Z"/></g>
<g><path style="opacity:0.978" fill="#594495" d="M 160.5,856.5 C 161.22,871.187 162.22,885.854 163.5,900.5C 163.351,909.445 164.018,918.279 165.5,927C 164.572,929.414 164.739,931.914 166,934.5C 166.333,941.833 166.667,949.167 167,956.5C 168.505,958.298 168.672,960.132 167.5,962C 169.79,970.097 171.957,978.263 174,986.5C 174.383,987.056 174.883,987.389 175.5,987.5C 175.5,988.167 175.5,988.833 175.5,989.5C 177.794,1000.4 181.961,1010.4 188,1019.5C 191.001,1028.65 195.835,1036.65 202.5,1043.5C 203.516,1047.52 205.849,1050.52 209.5,1052.5C 211.262,1053.26 212.262,1054.6 212.5,1056.5C 213.787,1058.8 215.12,1061.14 216.5,1063.5C 221.538,1067.55 226.538,1071.55 231.5,1075.5C 234.144,1078.48 236.811,1081.48 239.5,1084.5C 247.563,1089.53 255.896,1094.2 264.5,1098.5C 268.322,1101.34 272.322,1104.01 276.5,1106.5C 277.987,1107.8 279.654,1108.97 281.5,1110C 286.652,1111.37 291.652,1113.21 296.5,1115.5C 306.888,1117.71 317.221,1119.88 327.5,1122C 392.668,1122.83 457.668,1122.67 522.5,1121.5C 522.833,1121.5 523.167,1121.5 523.5,1121.5C 523.827,1143.08 523.494,1164.58 522.5,1186C 523.703,1189.2 524.703,1189.03 525.5,1185.5C 527.074,1186.98 528.407,1188.65 529.5,1190.5C 529.402,1192.55 530.069,1194.22 531.5,1195.5C 531.75,1197.94 532.75,1199.94 534.5,1201.5C 534.427,1203.03 535.094,1204.03 536.5,1204.5C 537.757,1207.43 539.757,1209.76 542.5,1211.5C 544.573,1213.58 546.907,1215.25 549.5,1216.5C 550.687,1218.98 552.687,1219.98 555.5,1219.5C 555.5,1221.5 556.5,1222.5 558.5,1222.5C 560.953,1223.22 563.287,1224.38 565.5,1226C 573.827,1226.5 582.16,1226.67 590.5,1226.5C 592.199,1226.66 593.866,1226.49 595.5,1226C 598.107,1224.65 600.44,1223.15 602.5,1221.5C 602.833,1220.83 603.167,1220.17 603.5,1219.5C 604.167,1219.5 604.833,1219.5 605.5,1219.5C 608.333,1217.52 611.333,1215.69 614.5,1214C 616.79,1212.22 618.457,1210.06 619.5,1207.5C 621.262,1206.74 622.262,1205.4 622.5,1203.5C 625.325,1202.52 626.658,1200.52 626.5,1197.5C 628.081,1195.86 628.747,1193.86 628.5,1191.5C 631.198,1186.24 632.198,1180.58 631.5,1174.5C 632.167,1174.5 632.5,1174.17 632.5,1173.5C 633.496,1157.68 633.83,1141.68 633.5,1125.5C 634.15,1125.2 634.817,1124.86 635.5,1124.5C 636.333,1140.16 636.833,1155.82 637,1171.5C 637.175,1155.93 637.675,1140.43 638.5,1125C 825.833,1124.33 1013.17,1124.33 1200.5,1125C 1201.33,1140.76 1201.83,1156.59 1202,1172.5C 1202.17,1156.49 1202.67,1140.49 1203.5,1124.5C 1204.18,1124.86 1204.85,1125.2 1205.5,1125.5C 1205.33,1141.5 1205.5,1157.5 1206,1173.5C 1206.18,1178.02 1206.68,1182.35 1207.5,1186.5C 1208.51,1188.54 1209.51,1190.54 1210.5,1192.5C 1210.16,1194.48 1210.82,1195.82 1212.5,1196.5C 1212.43,1198.03 1213.09,1199.03 1214.5,1199.5C 1214.56,1200.61 1214.89,1201.61 1215.5,1202.5C 1216.08,1204.75 1217.41,1206.42 1219.5,1207.5C 1222.56,1211.57 1226.23,1214.9 1230.5,1217.5C 1230.97,1218.91 1231.97,1219.57 1233.5,1219.5C 1234.39,1220.11 1235.39,1220.44 1236.5,1220.5C 1236.97,1221.91 1237.97,1222.57 1239.5,1222.5C 1242.37,1223.76 1245.37,1224.76 1248.5,1225.5C 1259.93,1227.38 1271.26,1226.55 1282.5,1223C 1283.71,1221.96 1284.71,1220.79 1285.5,1219.5C 1285.83,1219.5 1286.17,1219.5 1286.5,1219.5C 1289.69,1217.65 1292.86,1215.65 1296,1213.5C 1298.3,1210.2 1300.96,1207.2 1304,1204.5C 1305.12,1202.23 1305.95,1199.9 1306.5,1197.5C 1306.5,1197.17 1306.5,1196.83 1306.5,1196.5C 1308.76,1195.66 1309.76,1193.99 1309.5,1191.5C 1309.5,1191.17 1309.5,1190.83 1309.5,1190.5C 1311.35,1188.97 1312.35,1186.97 1312.5,1184.5C 1312.5,1184.17 1312.5,1183.83 1312.5,1183.5C 1312.83,1183.5 1313.17,1183.5 1313.5,1183.5C 1313.21,1185.29 1313.55,1186.95 1314.5,1188.5C 1315.29,1187.76 1315.95,1186.92 1316.5,1186C 1316.17,1164.55 1315.17,1143.38 1313.5,1122.5C 1313.5,1121.83 1313.5,1121.17 1313.5,1120.5C 1314.17,1120.5 1314.83,1120.5 1315.5,1120.5C 1381.04,1121.49 1446.54,1121.83 1512,1121.5C 1513.73,1121.03 1514.9,1120.03 1515.5,1118.5C 1523.36,1117.3 1531.36,1116.13 1539.5,1115C 1545.28,1112.51 1550.94,1110.01 1556.5,1107.5C 1563.21,1104.66 1569.88,1101.83 1576.5,1099C 1588.31,1090.78 1599.64,1081.95 1610.5,1072.5C 1617.09,1065.19 1623.59,1057.86 1630,1050.5C 1630.67,1049.75 1631.5,1049.41 1632.5,1049.5C 1636.15,1044.89 1639.82,1040.23 1643.5,1035.5C 1645.45,1031.93 1647.12,1028.26 1648.5,1024.5C 1651.42,1020.27 1654.25,1015.94 1657,1011.5C 1658.76,1003.78 1661.42,996.442 1665,989.5C 1667.87,980.081 1669.37,970.414 1669.5,960.5C 1670.22,960.082 1670.72,959.416 1671,958.5C 1671.29,948.472 1671.95,938.472 1673,928.5C 1675.09,922.982 1675.59,917.149 1674.5,911C 1675.58,892.796 1676.91,874.63 1678.5,856.5C 1679.22,856.082 1679.72,855.416 1680,854.5C 1680.98,842.852 1681.65,831.186 1682,819.5C 1682.33,818.833 1682.67,818.167 1683,817.5C 1683.2,819.382 1683.7,821.048 1684.5,822.5C 1684.83,1051.5 1684.5,1280.5 1683.5,1509.5C 1682.14,1513.73 1681.14,1518.06 1680.5,1522.5C 1679.91,1522.71 1679.41,1523.04 1679,1523.5C 1678.67,1526.5 1678.33,1529.5 1678,1532.5C 1676.98,1531.37 1676.32,1531.7 1676,1533.5C 1675.27,1538.14 1674.1,1542.47 1672.5,1546.5C 1671.5,1546.5 1670.5,1546.5 1669.5,1546.5C 1669.66,1548.53 1669.5,1550.53 1669,1552.5C 1668.33,1551.17 1667.67,1551.17 1667,1552.5C 1665.32,1556.02 1663.99,1559.69 1663,1563.5C 1662.33,1562.17 1661.67,1562.17 1661,1563.5C 1660.52,1564.45 1660.35,1565.45 1660.5,1566.5C 1659.5,1566.5 1658.5,1566.5 1657.5,1566.5C 1657.5,1567.83 1657.5,1569.17 1657.5,1570.5C 1656.5,1570.5 1655.5,1570.5 1654.5,1570.5C 1654.66,1571.87 1654.49,1573.21 1654,1574.5C 1653.33,1573.17 1652.67,1573.17 1652,1574.5C 1651.67,1575.83 1651.33,1577.17 1651,1578.5C 1650.59,1578.04 1650.09,1577.71 1649.5,1577.5C 1648.57,1578.69 1648.24,1580.02 1648.5,1581.5C 1647.45,1581.35 1646.45,1581.52 1645.5,1582C 1641.54,1585.81 1637.2,1588.98 1632.5,1591.5C 1632.5,1592.5 1632.5,1593.5 1632.5,1594.5C 1631.5,1594.5 1630.5,1594.5 1629.5,1594.5C 1629.5,1595.5 1629.5,1596.5 1629.5,1597.5C 1624.5,1599.5 1619.5,1601.5 1614.5,1603.5C 1614.5,1604.5 1614.5,1605.5 1614.5,1606.5C 1609.3,1608.93 1603.96,1611.1 1598.5,1613C 1590.84,1614.65 1583.51,1616.99 1576.5,1620C 1357.5,1620.17 1138.5,1620.33 919.5,1620.5C 700.5,1620.33 481.5,1620.17 262.5,1620C 260.382,1619.74 258.716,1618.74 257.5,1617C 251.781,1615.85 246.114,1614.52 240.5,1613C 235.023,1611.09 229.689,1608.92 224.5,1606.5C 224.5,1605.5 224.5,1604.5 224.5,1603.5C 219.486,1601.5 214.486,1599.5 209.5,1597.5C 209.5,1596.5 209.5,1595.5 209.5,1594.5C 203.464,1589.81 197.131,1585.48 190.5,1581.5C 190.762,1580.02 190.429,1578.69 189.5,1577.5C 188.914,1577.71 188.414,1578.04 188,1578.5C 187.667,1577.17 187.333,1575.83 187,1574.5C 186.333,1573.17 185.667,1573.17 185,1574.5C 184.51,1573.21 184.343,1571.87 184.5,1570.5C 183.5,1570.5 182.5,1570.5 181.5,1570.5C 181.5,1569.17 181.5,1567.83 181.5,1566.5C 180.5,1566.5 179.5,1566.5 178.5,1566.5C 178.649,1565.45 178.483,1564.45 178,1563.5C 177.333,1562.17 176.667,1562.17 176,1563.5C 175.01,1559.69 173.677,1556.02 172,1552.5C 171.333,1551.17 170.667,1551.17 170,1552.5C 167.457,1545.45 164.79,1538.45 162,1531.5C 161.667,1531.83 161.333,1532.17 161,1532.5C 160.667,1529.5 160.333,1526.5 160,1523.5C 159.586,1523.04 159.086,1522.71 158.5,1522.5C 157.861,1518.06 156.861,1513.73 155.5,1509.5C 154.5,1280.5 154.167,1051.5 154.5,822.5C 155.302,821.048 155.802,819.382 156,817.5C 156.333,818.5 156.667,819.5 157,820.5C 157.054,830.789 157.887,840.956 159.5,851C 158.261,853.118 158.595,854.951 160.5,856.5 Z"/></g>
<g><path style="opacity:1" fill="#60489b" d="M 154.5,810.5 C 155.859,811.007 156.859,812.007 157.5,813.5C 158.27,827.856 159.27,842.19 160.5,856.5C 158.595,854.951 158.261,853.118 159.5,851C 157.887,840.956 157.054,830.789 157,820.5C 156.667,819.5 156.333,818.5 156,817.5C 155.802,819.382 155.302,821.048 154.5,822.5C 154.5,818.5 154.5,814.5 154.5,810.5 Z"/></g>
<g><path style="opacity:1" fill="#60489c" d="M 1684.5,807.5 C 1684.5,812.5 1684.5,817.5 1684.5,822.5C 1683.7,821.048 1683.2,819.382 1683,817.5C 1682.67,818.167 1682.33,818.833 1682,819.5C 1681.65,831.186 1680.98,842.852 1680,854.5C 1679.72,855.416 1679.22,856.082 1678.5,856.5C 1678.5,852.167 1678.5,847.833 1678.5,843.5C 1679.29,842.391 1679.79,841.058 1680,839.5C 1680.13,829.118 1680.8,818.784 1682,808.5C 1682.67,807.748 1683.5,807.414 1684.5,807.5 Z"/></g>
<g><path style="opacity:1" fill="#664da3" d="M 167.5,928.5 C 165.522,919.257 164.189,909.924 163.5,900.5C 162.22,885.854 161.22,871.187 160.5,856.5C 159.27,842.19 158.27,827.856 157.5,813.5C 156.859,812.007 155.859,811.007 154.5,810.5C 154.5,806.167 154.5,801.833 154.5,797.5C 155.88,796.294 157.047,796.627 158,798.5C 160.97,841.882 164.136,885.216 167.5,928.5 Z"/></g>
<g><path style="opacity:1" fill="#654ca1" d="M 1678.5,843.5 C 1678.5,847.833 1678.5,852.167 1678.5,856.5C 1676.91,874.63 1675.58,892.796 1674.5,911C 1675.59,917.149 1675.09,922.982 1673,928.5C 1671.95,938.472 1671.29,948.472 1671,958.5C 1670.72,959.416 1670.22,960.082 1669.5,960.5C 1671.81,921.315 1674.81,882.315 1678.5,843.5 Z"/></g>
<g><path style="opacity:1" fill="#62499d" d="M 163.5,900.5 C 164.189,909.924 165.522,919.257 167.5,928.5C 168.306,937.423 168.806,946.423 169,955.5C 170.721,966.201 172.888,976.867 175.5,987.5C 174.883,987.389 174.383,987.056 174,986.5C 171.957,978.263 169.79,970.097 167.5,962C 168.672,960.132 168.505,958.298 167,956.5C 166.667,949.167 166.333,941.833 166,934.5C 164.739,931.914 164.572,929.414 165.5,927C 164.018,918.279 163.351,909.445 163.5,900.5 Z"/></g>
<g><path style="opacity:1" fill="#7e5fb6" d="M 1233.5,1014.5 C 1255.36,1013.11 1277.36,1013.28 1299.5,1015C 1300.06,1015.38 1300.39,1015.88 1300.5,1016.5C 1299.83,1016.5 1299.17,1016.5 1298.5,1016.5C 1295.02,1015.68 1291.36,1015.18 1287.5,1015C 1269.5,1014.5 1251.5,1014.33 1233.5,1014.5 Z"/></g>
<g><path style="opacity:1" fill="#9d75c7" d="M 1233.5,1014.5 C 1251.5,1014.33 1269.5,1014.5 1287.5,1015C 1291.36,1015.18 1295.02,1015.68 1298.5,1016.5C 1272.83,1016.5 1247.17,1016.5 1221.5,1016.5C 1220.39,1016.56 1219.39,1016.89 1218.5,1017.5C 1219.15,1016.27 1220.32,1015.61 1222,1015.5C 1225.8,1014.8 1229.64,1014.46 1233.5,1014.5 Z"/></g>
<g><path style="opacity:1" fill="#a77dcd" d="M 617.5,1016.5 C 592.831,1016.33 568.164,1016.5 543.5,1017C 541.68,1017.2 540.347,1018.03 539.5,1019.5C 538.833,1019.5 538.167,1019.5 537.5,1019.5C 537.5,1019.17 537.5,1018.83 537.5,1018.5C 539.92,1016.08 542.92,1014.91 546.5,1015C 568.167,1014.33 589.833,1014.33 611.5,1015C 613.708,1015.19 615.708,1015.69 617.5,1016.5 Z"/></g>
<g><path style="opacity:1" fill="#cf9ce5" d="M 1221.5,1016.5 C 1247.17,1016.5 1272.83,1016.5 1298.5,1016.5C 1298.5,1017.17 1298.5,1017.83 1298.5,1018.5C 1273.2,1017.36 1247.86,1017.19 1222.5,1018C 1221.76,1019.04 1220.76,1019.54 1219.5,1019.5C 1220.17,1018.5 1220.83,1017.5 1221.5,1016.5 Z"/></g>
<g><path style="opacity:1" fill="#644ba0" d="M 1669.5,960.5 C 1669.37,970.414 1667.87,980.081 1665,989.5C 1661.42,996.442 1658.76,1003.78 1657,1011.5C 1654.25,1015.94 1651.42,1020.27 1648.5,1024.5C 1648.34,1023.13 1648.51,1021.79 1649,1020.5C 1651.18,1017.6 1653.18,1014.6 1655,1011.5C 1657.1,1003.08 1660.1,995.077 1664,987.5C 1666.6,979.033 1667.93,970.366 1668,961.5C 1668.38,960.944 1668.88,960.611 1669.5,960.5 Z"/></g>
<g><path style="opacity:1" fill="#e0a9ef" d="M 617.5,1016.5 C 617.5,1017.17 617.5,1017.83 617.5,1018.5C 618.167,1019.17 618.833,1019.83 619.5,1020.5C 618.041,1020.57 616.708,1020.23 615.5,1019.5C 591.575,1018.51 567.575,1018.18 543.5,1018.5C 542.167,1018.83 540.833,1019.17 539.5,1019.5C 540.347,1018.03 541.68,1017.2 543.5,1017C 568.164,1016.5 592.831,1016.33 617.5,1016.5 Z"/></g>
<g><path style="opacity:1" fill="#a77dcd" d="M 1298.5,1016.5 C 1299.17,1016.5 1299.83,1016.5 1300.5,1016.5C 1300.5,1017.17 1300.5,1017.83 1300.5,1018.5C 1299.83,1018.5 1299.17,1018.5 1298.5,1018.5C 1298.5,1017.83 1298.5,1017.17 1298.5,1016.5 Z"/></g>
<g><path style="opacity:1" fill="#f5bafb" d="M 543.5,1018.5 C 567.575,1018.18 591.575,1018.51 615.5,1019.5C 603.671,1020.17 591.671,1020.5 579.5,1020.5C 567.148,1020.5 555.148,1019.83 543.5,1018.5 Z"/></g>
<g><path style="opacity:1" fill="#cc9ae3" d="M 617.5,1018.5 C 619.216,1018.63 620.883,1018.96 622.5,1019.5C 623.833,1021.17 625.167,1022.83 626.5,1024.5C 624.167,1023.17 621.833,1021.83 619.5,1020.5C 618.833,1019.83 618.167,1019.17 617.5,1018.5 Z"/></g>
<g><path style="opacity:1" fill="#a179ca" d="M 617.5,1016.5 C 619.674,1016.75 621.341,1017.75 622.5,1019.5C 620.883,1018.96 619.216,1018.63 617.5,1018.5C 617.5,1017.83 617.5,1017.17 617.5,1016.5 Z"/></g>
<g><path style="opacity:1" fill="#9f78c8" d="M 622.5,1019.5 C 625.5,1020.5 627.5,1022.5 628.5,1025.5C 627.833,1025.17 627.167,1024.83 626.5,1024.5C 625.167,1022.83 623.833,1021.17 622.5,1019.5 Z"/></g>
<g><path style="opacity:1" fill="#c191dc" d="M 1300.5,1018.5 C 1302.15,1018.66 1303.49,1019.33 1304.5,1020.5C 1305.17,1021.83 1306.17,1022.83 1307.5,1023.5C 1307.5,1024.17 1307.5,1024.83 1307.5,1025.5C 1304.83,1023.5 1302.5,1021.17 1300.5,1018.5 Z"/></g>
<g><path style="opacity:1" fill="#9872c4" d="M 1304.5,1020.5 C 1306.5,1020.5 1307.5,1021.5 1307.5,1023.5C 1306.17,1022.83 1305.17,1021.83 1304.5,1020.5 Z"/></g>
<g><path style="opacity:1" fill="#eeb4f7" d="M 543.5,1018.5 C 555.148,1019.83 567.148,1020.5 579.5,1020.5C 591.671,1020.5 603.671,1020.17 615.5,1019.5C 616.708,1020.23 618.041,1020.57 619.5,1020.5C 621.833,1021.83 624.167,1023.17 626.5,1024.5C 627.179,1027.71 628.346,1030.71 630,1033.5C 630.5,1057.5 630.667,1081.5 630.5,1105.5C 630.5,1106.17 630.5,1106.83 630.5,1107.5C 629.662,1107.84 629.328,1108.51 629.5,1109.5C 628.539,1111.26 628.205,1113.26 628.5,1115.5C 627.167,1115.5 625.833,1115.5 624.5,1115.5C 618.818,1129.67 608.485,1138.84 593.5,1143C 589.051,1143.26 584.717,1144.1 580.5,1145.5C 574.863,1144.76 569.196,1144.26 563.5,1144C 559.169,1140.84 554.503,1138.34 549.5,1136.5C 546.727,1133.18 543.561,1130.18 540,1127.5C 538.579,1124.99 536.912,1122.66 535,1120.5C 534.187,1118.56 533.687,1116.56 533.5,1114.5C 532.5,1114.5 531.5,1114.5 530.5,1114.5C 529.833,1113.5 529.167,1112.5 528.5,1111.5C 528.784,1109.59 528.451,1107.92 527.5,1106.5C 527.333,1082.16 527.5,1057.83 528,1033.5C 529,1031.17 530,1028.83 531,1026.5C 533.372,1024.3 535.539,1021.96 537.5,1019.5C 538.167,1019.5 538.833,1019.5 539.5,1019.5C 540.833,1019.17 542.167,1018.83 543.5,1018.5 Z"/></g>
<g><path style="opacity:1" fill="#a57ccc" d="M 1221.5,1016.5 C 1220.83,1017.5 1220.17,1018.5 1219.5,1019.5C 1219.17,1019.5 1218.83,1019.5 1218.5,1019.5C 1215.17,1020.83 1212.83,1023.17 1211.5,1026.5C 1211.17,1027.5 1210.5,1028.17 1209.5,1028.5C 1209.5,1027.83 1209.5,1027.17 1209.5,1026.5C 1211.53,1022.47 1214.53,1019.47 1218.5,1017.5C 1219.39,1016.89 1220.39,1016.56 1221.5,1016.5 Z"/></g>
<g><path style="opacity:1" fill="#eeb4f7" d="M 1298.5,1018.5 C 1299.17,1018.5 1299.83,1018.5 1300.5,1018.5C 1302.5,1021.17 1304.83,1023.5 1307.5,1025.5C 1308.11,1027.43 1309.11,1029.1 1310.5,1030.5C 1311.5,1055.33 1311.83,1080.33 1311.5,1105.5C 1310.54,1107.26 1310.21,1109.26 1310.5,1111.5C 1307.16,1117.19 1303.83,1122.85 1300.5,1128.5C 1297.51,1130.49 1294.85,1132.82 1292.5,1135.5C 1273.54,1148.94 1253.54,1150.11 1232.5,1139C 1228.41,1135.36 1224.41,1131.53 1220.5,1127.5C 1218.22,1122.9 1215.22,1118.9 1211.5,1115.5C 1210.83,1114.17 1210.17,1112.83 1209.5,1111.5C 1209.5,1109.83 1209.5,1108.17 1209.5,1106.5C 1210.22,1106.92 1210.72,1107.58 1211,1108.5C 1211.83,1083 1211.66,1057.66 1210.5,1032.5C 1212.07,1030.89 1212.74,1028.89 1212.5,1026.5C 1214.5,1024.17 1216.5,1021.83 1218.5,1019.5C 1218.83,1019.5 1219.17,1019.5 1219.5,1019.5C 1220.76,1019.54 1221.76,1019.04 1222.5,1018C 1247.86,1017.19 1273.2,1017.36 1298.5,1018.5 Z"/></g>
<g><path style="opacity:1" fill="#f5bafb" d="M 1225.5,1018.5 C 1248.98,1018.01 1272.32,1018.51 1295.5,1020C 1294.74,1020.94 1293.74,1021.44 1292.5,1021.5C 1269.86,1020.69 1247.19,1020.19 1224.5,1020C 1225.06,1019.62 1225.39,1019.12 1225.5,1018.5 Z"/></g>
<g><path style="opacity:1" fill="#9872c4" d="M 537.5,1018.5 C 537.5,1018.83 537.5,1019.17 537.5,1019.5C 533.135,1021.86 529.802,1025.2 527.5,1029.5C 527.5,1029.17 527.5,1028.83 527.5,1028.5C 529.198,1023.47 532.531,1020.14 537.5,1018.5 Z"/></g>
<g><path style="opacity:1" fill="#c091dc" d="M 537.5,1019.5 C 535.539,1021.96 533.372,1024.3 531,1026.5C 530,1028.83 529,1031.17 528,1033.5C 527.5,1057.83 527.333,1082.16 527.5,1106.5C 527.5,1106.83 527.5,1107.17 527.5,1107.5C 526.173,1081.6 526.173,1055.6 527.5,1029.5C 529.802,1025.2 533.135,1021.86 537.5,1019.5 Z"/></g>
<g><path style="opacity:1" fill="#d19ee5" d="M 1218.5,1019.5 C 1216.5,1021.83 1214.5,1024.17 1212.5,1026.5C 1212.17,1026.5 1211.83,1026.5 1211.5,1026.5C 1212.83,1023.17 1215.17,1020.83 1218.5,1019.5 Z"/></g>
<g><path style="opacity:1" fill="#a87ece" d="M 1307.5,1023.5 C 1308.91,1023.97 1309.57,1024.97 1309.5,1026.5C 1308.83,1026.17 1308.17,1025.83 1307.5,1025.5C 1307.5,1024.83 1307.5,1024.17 1307.5,1023.5 Z"/></g>
<g><path style="opacity:1" fill="#a47ccc" d="M 628.5,1026.5 C 628.833,1026.5 629.167,1026.5 629.5,1026.5C 631.081,1028.14 631.747,1030.14 631.5,1032.5C 630.508,1030.54 629.508,1028.54 628.5,1026.5 Z"/></g>
<g><path style="opacity:1" fill="#8363b9" d="M 1209.5,1026.5 C 1209.5,1027.17 1209.5,1027.83 1209.5,1028.5C 1207.74,1029.55 1207.08,1031.22 1207.5,1033.5C 1207.17,1033.5 1206.83,1033.5 1206.5,1033.5C 1205.98,1030.36 1206.98,1028.03 1209.5,1026.5 Z"/></g>
<g><path style="opacity:1" fill="#684fa5" d="M 175.5,989.5 C 180.357,1000.89 185.524,1012.23 191,1023.5C 192.643,1026.41 194.643,1029.08 197,1031.5C 198.052,1035.93 199.885,1039.93 202.5,1043.5C 195.835,1036.65 191.001,1028.65 188,1019.5C 181.961,1010.4 177.794,1000.4 175.5,989.5 Z"/></g>
<g><path style="opacity:1" fill="#c997e0" d="M 626.5,1024.5 C 627.167,1024.83 627.833,1025.17 628.5,1025.5C 628.5,1025.83 628.5,1026.17 628.5,1026.5C 629.508,1028.54 630.508,1030.54 631.5,1032.5C 631.5,1056.83 631.5,1081.17 631.5,1105.5C 631.167,1105.5 630.833,1105.5 630.5,1105.5C 630.667,1081.5 630.5,1057.5 630,1033.5C 628.346,1030.71 627.179,1027.71 626.5,1024.5 Z"/></g>
<g><path style="opacity:1" fill="#be8fda" d="M 1307.5,1025.5 C 1308.17,1025.83 1308.83,1026.17 1309.5,1026.5C 1310.17,1026.5 1310.5,1026.83 1310.5,1027.5C 1310.5,1027.83 1310.5,1028.17 1310.5,1028.5C 1310.5,1029.17 1310.5,1029.83 1310.5,1030.5C 1309.11,1029.1 1308.11,1027.43 1307.5,1025.5 Z"/></g>
<g><path style="opacity:1" fill="#6a50a7" d="M 1648.5,1024.5 C 1647.12,1028.26 1645.45,1031.93 1643.5,1035.5C 1639.82,1040.23 1636.15,1044.89 1632.5,1049.5C 1633.63,1046.11 1634.96,1042.78 1636.5,1039.5C 1639.86,1033.83 1643.86,1028.83 1648.5,1024.5 Z"/></g>
<g><path style="opacity:1" fill="#6c50aa" d="M 525.5,1029.5 C 525.5,1059.5 525.5,1089.5 525.5,1119.5C 524.668,1089.67 524.168,1059.67 524,1029.5C 523.5,1059.16 523.333,1088.83 523.5,1118.5C 522.336,1088.67 522.169,1058.67 523,1028.5C 524.22,1026.14 525.053,1026.48 525.5,1029.5 Z"/></g>
<g><path style="opacity:1" fill="#906bbe" d="M 527.5,1028.5 C 527.5,1028.83 527.5,1029.17 527.5,1029.5C 526.173,1055.6 526.173,1081.6 527.5,1107.5C 527.5,1130.5 527.5,1153.5 527.5,1176.5C 527.5,1179.17 527.5,1181.83 527.5,1184.5C 526.833,1163.17 526.167,1141.83 525.5,1120.5C 525.5,1120.17 525.5,1119.83 525.5,1119.5C 525.5,1089.5 525.5,1059.5 525.5,1029.5C 526.167,1029.17 526.833,1028.83 527.5,1028.5 Z"/></g>
<g><path style="opacity:1" fill="#6b4faa" d="M 1316.5,1119.5 C 1316.17,1119.5 1315.83,1119.5 1315.5,1119.5C 1315.67,1090.16 1315.5,1060.83 1315,1031.5C 1314.83,1061 1314.33,1090.34 1313.5,1119.5C 1313.5,1089.17 1313.5,1058.83 1313.5,1028.5C 1314.46,1026.01 1315.29,1026.01 1316,1028.5C 1316.5,1058.83 1316.67,1089.16 1316.5,1119.5 Z"/></g>
<g><path style="opacity:1" fill="#8b67bb" d="M 629.5,1026.5 C 630.496,1026.41 631.329,1026.75 632,1027.5C 632.497,1030.15 632.664,1032.81 632.5,1035.5C 632.5,1063.5 632.5,1091.5 632.5,1119.5C 632.5,1120.17 632.5,1120.83 632.5,1121.5C 632.5,1138.83 632.5,1156.17 632.5,1173.5C 632.5,1174.17 632.167,1174.5 631.5,1174.5C 631.5,1151.5 631.5,1128.5 631.5,1105.5C 631.5,1081.17 631.5,1056.83 631.5,1032.5C 631.747,1030.14 631.081,1028.14 629.5,1026.5 Z"/></g>
<g><path style="opacity:1" fill="#e4adf1" d="M 1211.5,1026.5 C 1211.83,1026.5 1212.17,1026.5 1212.5,1026.5C 1212.74,1028.89 1212.07,1030.89 1210.5,1032.5C 1209.5,1056.33 1209.17,1080.33 1209.5,1104.5C 1208.5,1082.34 1208.17,1060.01 1208.5,1037.5C 1208.37,1034.43 1208.7,1031.43 1209.5,1028.5C 1210.5,1028.17 1211.17,1027.5 1211.5,1026.5 Z"/></g>
<g><path style="opacity:1" fill="#8362b6" d="M 1310.5,1028.5 C 1310.5,1028.17 1310.5,1027.83 1310.5,1027.5C 1311.61,1027.56 1312.61,1027.89 1313.5,1028.5C 1313.5,1058.83 1313.5,1089.17 1313.5,1119.5C 1313.5,1119.83 1313.5,1120.17 1313.5,1120.5C 1313.5,1121.17 1313.5,1121.83 1313.5,1122.5C 1313.5,1142.83 1313.5,1163.17 1313.5,1183.5C 1313.17,1183.5 1312.83,1183.5 1312.5,1183.5C 1312.5,1181.17 1312.5,1178.83 1312.5,1176.5C 1312.67,1127.5 1312.5,1078.5 1312,1029.5C 1311.62,1028.94 1311.12,1028.61 1310.5,1028.5 Z"/></g>
<g><path style="opacity:1" fill="#b487d5" d="M 1209.5,1028.5 C 1208.7,1031.43 1208.37,1034.43 1208.5,1037.5C 1208.17,1037.5 1207.83,1037.5 1207.5,1037.5C 1207.5,1036.17 1207.5,1034.83 1207.5,1033.5C 1207.08,1031.22 1207.74,1029.55 1209.5,1028.5 Z"/></g>
<g><path style="opacity:1" fill="#634aa6" d="M 525.5,1119.5 C 525.5,1119.83 525.5,1120.17 525.5,1120.5C 524.833,1120.5 524.167,1120.5 523.5,1120.5C 523.5,1120.17 523.5,1119.83 523.5,1119.5C 523.5,1119.17 523.5,1118.83 523.5,1118.5C 523.333,1088.83 523.5,1059.16 524,1029.5C 524.168,1059.67 524.668,1089.67 525.5,1119.5 Z"/></g>
<g><path style="opacity:1" fill="#fabdfd" d="M 1308.5,1033.5 C 1309.12,1033.61 1309.62,1033.94 1310,1034.5C 1310.17,1045.17 1310.33,1055.83 1310.5,1066.5C 1310.66,1077.65 1310.16,1088.65 1309,1099.5C 1308.5,1077.5 1308.33,1055.5 1308.5,1033.5 Z"/></g>
<g><path style="opacity:1" fill="#b184d2" d="M 1310.5,1028.5 C 1311.12,1028.61 1311.62,1028.94 1312,1029.5C 1312.5,1078.5 1312.67,1127.5 1312.5,1176.5C 1312.17,1176.5 1311.83,1176.5 1311.5,1176.5C 1311.5,1152.83 1311.5,1129.17 1311.5,1105.5C 1311.83,1080.33 1311.5,1055.33 1310.5,1030.5C 1310.5,1029.83 1310.5,1029.17 1310.5,1028.5 Z"/></g>
<g><path style="opacity:1" fill="#fabdfd" d="M 528.5,1035.5 C 529.117,1035.61 529.617,1035.94 530,1036.5C 530.167,1046.83 530.333,1057.17 530.5,1067.5C 530.657,1078.32 530.157,1088.99 529,1099.5C 528.5,1078.17 528.333,1056.84 528.5,1035.5 Z"/></g>
<g><path style="opacity:1" fill="#634aa6" d="M 1315.5,1119.5 C 1315.5,1119.83 1315.5,1120.17 1315.5,1120.5C 1314.83,1120.5 1314.17,1120.5 1313.5,1120.5C 1313.5,1120.17 1313.5,1119.83 1313.5,1119.5C 1314.33,1090.34 1314.83,1061 1315,1031.5C 1315.5,1060.83 1315.67,1090.16 1315.5,1119.5 Z"/></g>
<g><path style="opacity:1" fill="#f8bbfc" d="M 1210.5,1032.5 C 1211.66,1057.66 1211.83,1083 1211,1108.5C 1210.72,1107.58 1210.22,1106.92 1209.5,1106.5C 1209.5,1105.83 1209.5,1105.17 1209.5,1104.5C 1209.17,1080.33 1209.5,1056.33 1210.5,1032.5 Z"/></g>
<g><path style="opacity:1" fill="#f8bbfc" d="M 627.5,1034.5 C 628.832,1046.15 629.499,1058.15 629.5,1070.5C 629.649,1083.26 629.149,1095.92 628,1108.5C 627.5,1083.84 627.333,1059.17 627.5,1034.5 Z"/></g>
<g><path style="opacity:1" fill="#7759b1" d="M 632.5,1035.5 C 633.163,1037.04 633.83,1038.71 634.5,1040.5C 634.833,1049.83 635.167,1059.17 635.5,1068.5C 635.023,1084.52 634.357,1100.52 633.5,1116.5C 633.5,1117.5 633.5,1118.5 633.5,1119.5C 633.167,1119.5 632.833,1119.5 632.5,1119.5C 632.5,1091.5 632.5,1063.5 632.5,1035.5 Z"/></g>
<g><path style="opacity:1" fill="#664da3" d="M 202.5,1043.5 C 205.209,1046.21 207.542,1049.21 209.5,1052.5C 205.849,1050.52 203.516,1047.52 202.5,1043.5 Z"/></g>
<g><path style="opacity:1" fill="#644ba0" d="M 212.5,1056.5 C 219.085,1062.42 225.419,1068.75 231.5,1075.5C 226.538,1071.55 221.538,1067.55 216.5,1063.5C 215.12,1061.14 213.787,1058.8 212.5,1056.5 Z"/></g>
<g><path style="opacity:1" fill="#654ca1" d="M 231.5,1075.5 C 242.788,1082.96 253.788,1090.63 264.5,1098.5C 255.896,1094.2 247.563,1089.53 239.5,1084.5C 236.811,1081.48 234.144,1078.48 231.5,1075.5 Z"/></g>
<g><path style="opacity:1" fill="#674ea3" d="M 1610.5,1072.5 C 1599.64,1081.95 1588.31,1090.78 1576.5,1099C 1569.88,1101.83 1563.21,1104.66 1556.5,1107.5C 1556.37,1106.62 1556.7,1105.96 1557.5,1105.5C 1574.68,1098.66 1589.68,1088.82 1602.5,1076C 1605.27,1074.92 1607.93,1073.75 1610.5,1072.5 Z"/></g>
<g><path style="opacity:1" fill="#654ca1" d="M 264.5,1098.5 C 268.08,1099.57 271.58,1100.9 275,1102.5C 278.88,1105.69 283.38,1107.69 288.5,1108.5C 290.16,1109.17 291.493,1110.17 292.5,1111.5C 287.239,1109.58 281.906,1107.92 276.5,1106.5C 272.322,1104.01 268.322,1101.34 264.5,1098.5 Z"/></g>
<g><path style="opacity:1" fill="#cf97e4" d="M 1311.5,1105.5 C 1311.5,1129.17 1311.5,1152.83 1311.5,1176.5C 1311.6,1179.24 1311.27,1181.9 1310.5,1184.5C 1309.83,1184.83 1309.17,1185.17 1308.5,1185.5C 1308.69,1182.02 1309.36,1178.68 1310.5,1175.5C 1310.5,1154.17 1310.5,1132.83 1310.5,1111.5C 1310.21,1109.26 1310.54,1107.26 1311.5,1105.5 Z"/></g>
<g><path style="opacity:1" fill="#e9aaf5" d="M 1310.5,1111.5 C 1310.5,1132.83 1310.5,1154.17 1310.5,1175.5C 1309.88,1175.61 1309.38,1175.94 1309,1176.5C 1308.67,1157.17 1308.33,1137.83 1308,1118.5C 1305.7,1121.97 1303.2,1125.3 1300.5,1128.5C 1303.83,1122.85 1307.16,1117.19 1310.5,1111.5 Z"/></g>
<g><path style="opacity:1" fill="#7254af" d="M 1206.5,1040.5 C 1206.5,1066.83 1206.5,1093.17 1206.5,1119.5C 1015.5,1119.5 824.5,1119.5 633.5,1119.5C 633.5,1118.5 633.5,1117.5 633.5,1116.5C 824,1115.17 1014.5,1115.17 1205,1116.5C 1205.17,1091 1205.67,1065.66 1206.5,1040.5 Z"/></g>
<g><path style="opacity:1" fill="#dda0ed" d="M 527.5,1106.5 C 528.451,1107.92 528.784,1109.59 528.5,1111.5C 528.167,1132.51 528.5,1153.51 529.5,1174.5C 530.5,1155.18 530.833,1135.84 530.5,1116.5C 531.376,1116.37 532.043,1116.7 532.5,1117.5C 533.973,1121.78 535.973,1125.78 538.5,1129.5C 542.392,1131.61 546.059,1133.94 549.5,1136.5C 551.981,1138.69 554.481,1141.03 557,1143.5C 560.221,1144.53 563.388,1145.69 566.5,1147C 576.199,1147.7 585.866,1147.37 595.5,1146C 600.112,1144.36 604.446,1142.19 608.5,1139.5C 612.513,1134.49 617.179,1130.15 622.5,1126.5C 623.986,1124.7 624.986,1122.7 625.5,1120.5C 626.117,1120.39 626.617,1120.06 627,1119.5C 627.333,1139.83 627.667,1160.17 628,1180.5C 629.488,1159.98 629.988,1139.32 629.5,1118.5C 629.5,1115.5 629.5,1112.5 629.5,1109.5C 629.328,1108.51 629.662,1107.84 630.5,1107.5C 630.667,1132.5 630.5,1157.5 630,1182.5C 628.57,1185.35 627.737,1188.35 627.5,1191.5C 626.326,1192.51 625.66,1193.85 625.5,1195.5C 621.841,1200.83 618.174,1206.16 614.5,1211.5C 612.368,1211.55 611.035,1212.55 610.5,1214.5C 609.833,1214.83 609.167,1215.17 608.5,1215.5C 606.589,1216.08 604.922,1217.08 603.5,1218.5C 600.422,1218.62 597.755,1219.62 595.5,1221.5C 593.821,1221.29 592.821,1221.95 592.5,1223.5C 591.5,1223.5 590.5,1223.5 589.5,1223.5C 580.357,1223.97 571.357,1223.3 562.5,1221.5C 560.079,1221.12 557.746,1220.46 555.5,1219.5C 555.5,1218.83 555.167,1218.5 554.5,1218.5C 554.027,1217.09 553.027,1216.43 551.5,1216.5C 549.431,1213.43 546.764,1211.09 543.5,1209.5C 543.179,1207.95 542.179,1207.29 540.5,1207.5C 539.92,1205.25 538.587,1203.58 536.5,1202.5C 535.5,1200.5 534.5,1198.5 533.5,1196.5C 533.573,1194.97 532.906,1193.97 531.5,1193.5C 531.167,1192.17 530.833,1190.83 530.5,1189.5C 529.66,1185.01 528.66,1180.68 527.5,1176.5C 527.5,1153.5 527.5,1130.5 527.5,1107.5C 527.5,1107.17 527.5,1106.83 527.5,1106.5 Z"/></g>
<g><path style="opacity:1" fill="#e9aaf6" d="M 528.5,1111.5 C 529.167,1112.5 529.833,1113.5 530.5,1114.5C 530.5,1115.17 530.5,1115.83 530.5,1116.5C 530.833,1135.84 530.5,1155.18 529.5,1174.5C 528.5,1153.51 528.167,1132.51 528.5,1111.5 Z"/></g>
<g><path style="opacity:1" fill="#dea1ee" d="M 1211.5,1117.5 C 1213.07,1119.1 1213.74,1121.1 1213.5,1123.5C 1214.5,1123.5 1215.5,1123.5 1216.5,1123.5C 1218.79,1127.99 1221.79,1132.16 1225.5,1136C 1230.89,1140.36 1236.89,1143.7 1243.5,1146C 1253.13,1147.37 1262.8,1147.7 1272.5,1147C 1278.91,1145.23 1284.91,1142.57 1290.5,1139C 1291.31,1137.89 1291.97,1136.72 1292.5,1135.5C 1294.85,1132.82 1297.51,1130.49 1300.5,1128.5C 1303.2,1125.3 1305.7,1121.97 1308,1118.5C 1308.33,1137.83 1308.67,1157.17 1309,1176.5C 1309.38,1175.94 1309.88,1175.61 1310.5,1175.5C 1309.36,1178.68 1308.69,1182.02 1308.5,1185.5C 1308.5,1187.5 1308.5,1189.5 1308.5,1191.5C 1306.02,1192.69 1305.02,1194.69 1305.5,1197.5C 1305.5,1197.83 1305.5,1198.17 1305.5,1198.5C 1300.27,1204.07 1294.94,1209.74 1289.5,1215.5C 1287.37,1216.96 1285.04,1217.96 1282.5,1218.5C 1280.03,1218.75 1278.03,1219.75 1276.5,1221.5C 1272.92,1222.58 1269.25,1223.25 1265.5,1223.5C 1261.15,1223.67 1256.82,1223.5 1252.5,1223C 1246.27,1221.48 1240.27,1219.65 1234.5,1217.5C 1233.83,1217.5 1233.17,1217.5 1232.5,1217.5C 1230.76,1214.76 1228.43,1212.76 1225.5,1211.5C 1225.17,1209.17 1223.83,1207.83 1221.5,1207.5C 1221.5,1205.5 1220.5,1204.5 1218.5,1204.5C 1217.92,1202.25 1216.59,1200.58 1214.5,1199.5C 1214.5,1198.83 1214.5,1198.17 1214.5,1197.5C 1214.5,1196.83 1214.5,1196.17 1214.5,1195.5C 1212.92,1191.05 1212.09,1186.38 1212,1181.5C 1211.33,1182.25 1210.5,1182.59 1209.5,1182.5C 1209.5,1181.5 1209.5,1180.5 1209.5,1179.5C 1210.12,1179.61 1210.62,1179.94 1211,1180.5C 1211.5,1159.5 1211.67,1138.5 1211.5,1117.5 Z"/></g>
<g><path style="opacity:1" fill="#6b50a7" d="M 318.5,1116.5 C 327.628,1116.4 336.628,1117.23 345.5,1119C 404.832,1119.5 464.166,1119.67 523.5,1119.5C 523.5,1119.83 523.5,1120.17 523.5,1120.5C 460.496,1120.83 397.496,1120.5 334.5,1119.5C 329.134,1118.06 323.8,1117.06 318.5,1116.5 Z"/></g>
<g><path style="opacity:1" fill="#6a4fa6" d="M 632.5,1119.5 C 632.833,1119.5 633.167,1119.5 633.5,1119.5C 824.5,1119.5 1015.5,1119.5 1206.5,1119.5C 1206.5,1120.17 1206.5,1120.83 1206.5,1121.5C 1015.17,1120.17 823.833,1120.17 632.5,1121.5C 632.5,1120.83 632.5,1120.17 632.5,1119.5 Z"/></g>
<g><path style="opacity:1" fill="#cd97e3" d="M 1207.5,1037.5 C 1207.83,1037.5 1208.17,1037.5 1208.5,1037.5C 1208.17,1060.01 1208.5,1082.34 1209.5,1104.5C 1209.5,1105.17 1209.5,1105.83 1209.5,1106.5C 1209.5,1108.17 1209.5,1109.83 1209.5,1111.5C 1209.5,1134.17 1209.5,1156.83 1209.5,1179.5C 1209.5,1180.5 1209.5,1181.5 1209.5,1182.5C 1209.17,1182.5 1208.83,1182.5 1208.5,1182.5C 1208.5,1179.83 1208.5,1177.17 1208.5,1174.5C 1208.16,1128.83 1207.82,1083.17 1207.5,1037.5 Z"/></g>
<g><path style="opacity:1" fill="#6a4fa6" d="M 1556.5,1107.5 C 1550.94,1110.01 1545.28,1112.51 1539.5,1115C 1531.36,1116.13 1523.36,1117.3 1515.5,1118.5C 1512.93,1118.15 1510.59,1118.65 1508.5,1120C 1444.17,1120.5 1379.83,1120.67 1315.5,1120.5C 1315.5,1120.17 1315.5,1119.83 1315.5,1119.5C 1315.83,1119.5 1316.17,1119.5 1316.5,1119.5C 1377.5,1119.67 1438.5,1119.5 1499.5,1119C 1512.25,1117.2 1524.92,1115.2 1537.5,1113C 1543.52,1110.08 1549.85,1108.24 1556.5,1107.5 Z"/></g>
<g><path style="opacity:1" fill="#5c4597" d="M 276.5,1106.5 C 281.906,1107.92 287.239,1109.58 292.5,1111.5C 294.741,1112.62 297.075,1113.79 299.5,1115C 309.241,1116.53 318.908,1118.36 328.5,1120.5C 393.163,1121.5 457.83,1121.83 522.5,1121.5C 457.668,1122.67 392.668,1122.83 327.5,1122C 317.221,1119.88 306.888,1117.71 296.5,1115.5C 291.652,1113.21 286.652,1111.37 281.5,1110C 279.654,1108.97 277.987,1107.8 276.5,1106.5 Z"/></g>
<g><path style="opacity:1" fill="#634b9f" d="M 292.5,1111.5 C 301.298,1112.61 309.964,1114.28 318.5,1116.5C 323.8,1117.06 329.134,1118.06 334.5,1119.5C 397.496,1120.5 460.496,1120.83 523.5,1120.5C 524.167,1120.5 524.833,1120.5 525.5,1120.5C 525.5,1120.83 525.5,1121.17 525.5,1121.5C 524.833,1121.5 524.167,1121.5 523.5,1121.5C 523.167,1121.5 522.833,1121.5 522.5,1121.5C 457.83,1121.83 393.163,1121.5 328.5,1120.5C 318.908,1118.36 309.241,1116.53 299.5,1115C 297.075,1113.79 294.741,1112.62 292.5,1111.5 Z"/></g>
<g><path style="opacity:1" fill="#e8a8f4" d="M 629.5,1118.5 C 629.988,1139.32 629.488,1159.98 628,1180.5C 627.667,1160.17 627.333,1139.83 627,1119.5C 626.617,1120.06 626.117,1120.39 625.5,1120.5C 625.794,1117.52 627.128,1116.85 629.5,1118.5 Z"/></g>
<g><path style="opacity:1" fill="#e8a9f5" d="M 1209.5,1111.5 C 1210.17,1112.83 1210.83,1114.17 1211.5,1115.5C 1211.5,1116.17 1211.5,1116.83 1211.5,1117.5C 1211.67,1138.5 1211.5,1159.5 1211,1180.5C 1210.62,1179.94 1210.12,1179.61 1209.5,1179.5C 1209.5,1156.83 1209.5,1134.17 1209.5,1111.5 Z"/></g>
<g><path style="opacity:1" fill="#634a9e" d="M 1515.5,1118.5 C 1514.9,1120.03 1513.73,1121.03 1512,1121.5C 1446.54,1121.83 1381.04,1121.49 1315.5,1120.5C 1379.83,1120.67 1444.17,1120.5 1508.5,1120C 1510.59,1118.65 1512.93,1118.15 1515.5,1118.5 Z"/></g>
<g><path style="opacity:1" fill="#60489b" d="M 1206.5,1121.5 C 1207.5,1138.99 1207.83,1156.66 1207.5,1174.5C 1207.5,1178.5 1207.5,1182.5 1207.5,1186.5C 1206.68,1182.35 1206.18,1178.02 1206,1173.5C 1205.5,1157.5 1205.33,1141.5 1205.5,1125.5C 1205.5,1124.5 1205.5,1123.5 1205.5,1122.5C 1014.83,1122.5 824.167,1122.5 633.5,1122.5C 633.5,1123.5 633.5,1124.5 633.5,1125.5C 633.83,1141.68 633.496,1157.68 632.5,1173.5C 632.5,1156.17 632.5,1138.83 632.5,1121.5C 823.833,1120.17 1015.17,1120.17 1206.5,1121.5 Z"/></g>
<g><path style="opacity:1" fill="#a67acb" d="M 1206.5,1033.5 C 1206.83,1033.5 1207.17,1033.5 1207.5,1033.5C 1207.5,1034.83 1207.5,1036.17 1207.5,1037.5C 1207.82,1083.17 1208.16,1128.83 1208.5,1174.5C 1208.17,1174.5 1207.83,1174.5 1207.5,1174.5C 1207.83,1156.66 1207.5,1138.99 1206.5,1121.5C 1206.5,1120.83 1206.5,1120.17 1206.5,1119.5C 1206.5,1093.17 1206.5,1066.83 1206.5,1040.5C 1206.5,1038.17 1206.5,1035.83 1206.5,1033.5 Z"/></g>
<g><path style="opacity:1" fill="#574293" d="M 1205.5,1125.5 C 1204.85,1125.2 1204.18,1124.86 1203.5,1124.5C 1202.67,1140.49 1202.17,1156.49 1202,1172.5C 1201.83,1156.59 1201.33,1140.76 1200.5,1125C 1013.17,1124.33 825.833,1124.33 638.5,1125C 637.675,1140.43 637.175,1155.93 637,1171.5C 636.833,1155.82 636.333,1140.16 635.5,1124.5C 634.817,1124.86 634.15,1125.2 633.5,1125.5C 633.5,1124.5 633.5,1123.5 633.5,1122.5C 824.167,1122.5 1014.83,1122.5 1205.5,1122.5C 1205.5,1123.5 1205.5,1124.5 1205.5,1125.5 Z"/></g>
<g><path style="opacity:1" fill="#503d8e" d="M 523.5,1121.5 C 524.167,1121.5 524.833,1121.5 525.5,1121.5C 525.5,1142.83 525.5,1164.17 525.5,1185.5C 524.703,1189.03 523.703,1189.2 522.5,1186C 523.494,1164.58 523.827,1143.08 523.5,1121.5 Z"/></g>
<g><path style="opacity:1" fill="#7659a8" d="M 525.5,1120.5 C 526.167,1141.83 526.833,1163.17 527.5,1184.5C 528.931,1185.78 529.598,1187.45 529.5,1189.5C 529.5,1189.83 529.5,1190.17 529.5,1190.5C 528.407,1188.65 527.074,1186.98 525.5,1185.5C 525.5,1164.17 525.5,1142.83 525.5,1121.5C 525.5,1121.17 525.5,1120.83 525.5,1120.5 Z"/></g>
<g><path style="opacity:1" fill="#503d8d" d="M 1313.5,1122.5 C 1315.17,1143.38 1316.17,1164.55 1316.5,1186C 1315.95,1186.92 1315.29,1187.76 1314.5,1188.5C 1313.55,1186.95 1313.21,1185.29 1313.5,1183.5C 1313.5,1163.17 1313.5,1142.83 1313.5,1122.5 Z"/></g>
<g><path style="opacity:1" fill="#e8aef4" d="M 530.5,1114.5 C 531.5,1114.5 532.5,1114.5 533.5,1114.5C 533.687,1116.56 534.187,1118.56 535,1120.5C 536.912,1122.66 538.579,1124.99 540,1127.5C 543.561,1130.18 546.727,1133.18 549.5,1136.5C 546.059,1133.94 542.392,1131.61 538.5,1129.5C 535.973,1125.78 533.973,1121.78 532.5,1117.5C 532.043,1116.7 531.376,1116.37 530.5,1116.5C 530.5,1115.83 530.5,1115.17 530.5,1114.5 Z"/></g>
<g><path style="opacity:1" fill="#e6abf3" d="M 629.5,1109.5 C 629.5,1112.5 629.5,1115.5 629.5,1118.5C 627.128,1116.85 625.794,1117.52 625.5,1120.5C 624.986,1122.7 623.986,1124.7 622.5,1126.5C 617.179,1130.15 612.513,1134.49 608.5,1139.5C 604.446,1142.19 600.112,1144.36 595.5,1146C 585.866,1147.37 576.199,1147.7 566.5,1147C 563.388,1145.69 560.221,1144.53 557,1143.5C 554.481,1141.03 551.981,1138.69 549.5,1136.5C 554.503,1138.34 559.169,1140.84 563.5,1144C 569.196,1144.26 574.863,1144.76 580.5,1145.5C 584.717,1144.1 589.051,1143.26 593.5,1143C 608.485,1138.84 618.818,1129.67 624.5,1115.5C 625.833,1115.5 627.167,1115.5 628.5,1115.5C 628.205,1113.26 628.539,1111.26 629.5,1109.5 Z"/></g>
<g><path style="opacity:1" fill="#e5aaf2" d="M 1211.5,1115.5 C 1215.22,1118.9 1218.22,1122.9 1220.5,1127.5C 1224.41,1131.53 1228.41,1135.36 1232.5,1139C 1253.54,1150.11 1273.54,1148.94 1292.5,1135.5C 1291.97,1136.72 1291.31,1137.89 1290.5,1139C 1284.91,1142.57 1278.91,1145.23 1272.5,1147C 1262.8,1147.7 1253.13,1147.37 1243.5,1146C 1236.89,1143.7 1230.89,1140.36 1225.5,1136C 1221.79,1132.16 1218.79,1127.99 1216.5,1123.5C 1215.5,1123.5 1214.5,1123.5 1213.5,1123.5C 1213.74,1121.1 1213.07,1119.1 1211.5,1117.5C 1211.5,1116.83 1211.5,1116.17 1211.5,1115.5 Z"/></g>
<g><path style="opacity:1" fill="#634e9e" d="M 477.5,1195.5 C 488.309,1236.98 514.309,1262.98 555.5,1273.5C 555.5,1274.5 555.5,1275.5 555.5,1276.5C 571.167,1277.83 586.833,1277.83 602.5,1276.5C 602.5,1275.5 602.5,1274.5 602.5,1273.5C 620.629,1269.62 636.629,1261.45 650.5,1249C 654.67,1244 659.004,1239.16 663.5,1234.5C 666.439,1232.01 668.939,1229.01 671,1225.5C 679.25,1209.94 683.584,1193.27 684,1175.5C 684.383,1174.94 684.883,1174.61 685.5,1174.5C 841.333,1175.83 997.167,1175.83 1153,1174.5C 1154.3,1181.33 1154.96,1188.33 1155,1195.5C 1156,1196.5 1157,1197.5 1158,1198.5C 1159.8,1203.66 1160.8,1208.99 1161,1214.5C 1162.87,1216 1163.87,1218 1164,1220.5C 1165.94,1222.19 1167.77,1223.86 1169.5,1225.5C 1185.15,1250.81 1207.48,1266.81 1236.5,1273.5C 1236.5,1274.5 1236.5,1275.5 1236.5,1276.5C 1252.17,1277.83 1267.83,1277.83 1283.5,1276.5C 1283.5,1275.5 1283.5,1274.5 1283.5,1273.5C 1288.49,1272.45 1293.49,1271.29 1298.5,1270C 1304.68,1266.41 1311.01,1263.08 1317.5,1260C 1321.88,1255.95 1326.55,1252.29 1331.5,1249C 1336.03,1243.64 1340.7,1238.47 1345.5,1233.5C 1350.68,1226.85 1354.85,1219.52 1358,1211.5C 1360.25,1204.9 1362.25,1198.24 1364,1191.5C 1364.3,1185.47 1364.8,1179.47 1365.5,1173.5C 1414.17,1173.67 1462.83,1173.5 1511.5,1173C 1534.08,1170.82 1555.75,1165.16 1576.5,1156C 1583.29,1155.13 1589.96,1155.63 1596.5,1157.5C 1598.59,1158.58 1599.92,1160.25 1600.5,1162.5C 1601.86,1165.67 1602.7,1169 1603,1172.5C 1603.81,1281.84 1603.65,1391.18 1602.5,1500.5C 1601.5,1500.5 1600.5,1500.5 1599.5,1500.5C 1599.12,1505.37 1597.95,1510.04 1596,1514.5C 1593.87,1517.1 1592.04,1519.77 1590.5,1522.5C 1590.59,1523.5 1590.25,1524.33 1589.5,1525C 1587.6,1526.42 1585.6,1527.59 1583.5,1528.5C 1578.04,1530.89 1572.38,1532.72 1566.5,1534C 1565.83,1534.67 1565.17,1535.33 1564.5,1536C 1134.5,1536.5 704.5,1536.67 274.5,1536.5C 271.211,1535.63 267.877,1534.96 264.5,1534.5C 259.155,1532.01 254.155,1528.84 249.5,1525C 248.748,1524.33 248.414,1523.5 248.5,1522.5C 246.933,1519.72 245.1,1517.05 243,1514.5C 241.047,1510.04 239.88,1505.37 239.5,1500.5C 238.5,1500.5 237.5,1500.5 236.5,1500.5C 236.333,1389.17 236.5,1277.83 237,1166.5C 237.791,1165.26 238.291,1163.92 238.5,1162.5C 245.138,1155.88 253.138,1153.71 262.5,1156C 273.881,1160.61 285.381,1164.78 297,1168.5C 307.207,1169.75 317.374,1171.25 327.5,1173C 376.166,1173.5 424.832,1173.67 473.5,1173.5C 474.198,1179.47 474.698,1185.47 475,1191.5C 475.122,1193.44 475.955,1194.77 477.5,1195.5 Z"/></g>
<g><path style="opacity:1" fill="#5b4596" d="M 234.5,1170.5 C 234.5,1278.5 234.5,1386.5 234.5,1494.5C 233.59,1492.98 232.757,1491.31 232,1489.5C 231.333,1384.17 231.333,1278.83 232,1173.5C 232.852,1172.43 233.685,1171.43 234.5,1170.5 Z"/></g>
<g><path style="opacity:1" fill="#5b4596" d="M 1604.5,1170.5 C 1605.31,1171.43 1606.15,1172.43 1607,1173.5C 1607.67,1278.83 1607.67,1384.17 1607,1489.5C 1606.24,1491.31 1605.41,1492.98 1604.5,1494.5C 1604.5,1386.5 1604.5,1278.5 1604.5,1170.5 Z"/></g>
<g><path style="opacity:1" fill="#5b4596" d="M 1156.5,1174.5 C 1155.83,1174.17 1155.17,1173.83 1154.5,1173.5C 998.001,1172.33 841.334,1172.17 684.5,1173C 684,1173.5 683.5,1174 683,1174.5C 682.701,1187.23 680.368,1199.57 676,1211.5C 673.327,1217.52 670.16,1223.19 666.5,1228.5C 666.343,1227.13 666.51,1225.79 667,1224.5C 668.667,1222.17 670.333,1219.83 672,1217.5C 674.271,1211.91 676.271,1206.24 678,1200.5C 679.013,1191.05 680.513,1181.72 682.5,1172.5C 840.499,1171.5 998.499,1171.17 1156.5,1171.5C 1156.5,1172.5 1156.5,1173.5 1156.5,1174.5 Z"/></g>
<g><path style="opacity:1" fill="#5f4a9a" d="M 477.5,1195.5 C 475.955,1194.77 475.122,1193.44 475,1191.5C 474.698,1185.47 474.198,1179.47 473.5,1173.5C 424.832,1173.67 376.166,1173.5 327.5,1173C 317.374,1171.25 307.207,1169.75 297,1168.5C 285.381,1164.78 273.881,1160.61 262.5,1156C 253.138,1153.71 245.138,1155.88 238.5,1162.5C 241.593,1156.86 246.427,1153.86 253,1153.5C 264.142,1155.33 274.975,1158.5 285.5,1163C 298.292,1166.71 311.292,1169.38 324.5,1171C 374.481,1172.44 424.481,1172.94 474.5,1172.5C 475.302,1180.19 476.302,1187.86 477.5,1195.5 Z"/></g>
<g><path style="opacity:1" fill="#5f4a9a" d="M 1154.5,1173.5 C 997.999,1173.17 841.666,1173.5 685.5,1174.5C 684.883,1174.61 684.383,1174.94 684,1175.5C 683.584,1193.27 679.25,1209.94 671,1225.5C 668.939,1229.01 666.439,1232.01 663.5,1234.5C 664.5,1232.5 665.5,1230.5 666.5,1228.5C 670.16,1223.19 673.327,1217.52 676,1211.5C 680.368,1199.57 682.701,1187.23 683,1174.5C 683.5,1174 684,1173.5 684.5,1173C 841.334,1172.17 998.001,1172.33 1154.5,1173.5 Z"/></g>
<g><path style="opacity:1" fill="#5f4a9a" d="M 1596.5,1157.5 C 1589.96,1155.63 1583.29,1155.13 1576.5,1156C 1555.75,1165.16 1534.08,1170.82 1511.5,1173C 1462.83,1173.5 1414.17,1173.67 1365.5,1173.5C 1364.8,1179.47 1364.3,1185.47 1364,1191.5C 1362.25,1198.24 1360.25,1204.9 1358,1211.5C 1354.85,1219.52 1350.68,1226.85 1345.5,1233.5C 1356.82,1214.85 1363.16,1194.52 1364.5,1172.5C 1410.5,1172.67 1456.5,1172.5 1502.5,1172C 1527.49,1170.27 1551.49,1164.6 1574.5,1155C 1580.87,1153.37 1587.2,1153.37 1593.5,1155C 1594.57,1155.85 1595.57,1156.69 1596.5,1157.5 Z"/></g>
<g><path style="opacity:1" fill="#604b9b" d="M 238.5,1162.5 C 238.291,1163.92 237.791,1165.26 237,1166.5C 236.5,1277.83 236.333,1389.17 236.5,1500.5C 237.5,1500.5 238.5,1500.5 239.5,1500.5C 239.88,1505.37 241.047,1510.04 243,1514.5C 245.1,1517.05 246.933,1519.72 248.5,1522.5C 247.5,1521.83 246.5,1521.17 245.5,1520.5C 239.905,1512.73 236.238,1504.07 234.5,1494.5C 234.5,1386.5 234.5,1278.5 234.5,1170.5C 235.185,1168.59 235.685,1166.59 236,1164.5C 236.708,1163.62 237.542,1162.95 238.5,1162.5 Z"/></g>
<g><path style="opacity:1" fill="#624d9d" d="M 685.5,1174.5 C 841.666,1173.5 997.999,1173.17 1154.5,1173.5C 1155.17,1173.83 1155.83,1174.17 1156.5,1174.5C 1156.62,1192.64 1160.95,1209.64 1169.5,1225.5C 1167.77,1223.86 1165.94,1222.19 1164,1220.5C 1163.87,1218 1162.87,1216 1161,1214.5C 1160.8,1208.99 1159.8,1203.66 1158,1198.5C 1157,1197.5 1156,1196.5 1155,1195.5C 1154.96,1188.33 1154.3,1181.33 1153,1174.5C 997.167,1175.83 841.333,1175.83 685.5,1174.5 Z"/></g>
<g><path style="opacity:1" fill="#5f4a9a" d="M 1600.5,1162.5 C 1601.46,1162.95 1602.29,1163.62 1603,1164.5C 1603.32,1166.59 1603.82,1168.59 1604.5,1170.5C 1604.5,1278.5 1604.5,1386.5 1604.5,1494.5C 1602.76,1504.07 1599.09,1512.73 1593.5,1520.5C 1592.5,1521.17 1591.5,1521.83 1590.5,1522.5C 1592.04,1519.77 1593.87,1517.1 1596,1514.5C 1597.95,1510.04 1599.12,1505.37 1599.5,1500.5C 1600.5,1500.5 1601.5,1500.5 1602.5,1500.5C 1603.65,1391.18 1603.81,1281.84 1603,1172.5C 1602.7,1169 1601.86,1165.67 1600.5,1162.5 Z"/></g>
<g><path style="opacity:1" fill="#9870be" d="M 1207.5,1174.5 C 1207.83,1174.5 1208.17,1174.5 1208.5,1174.5C 1208.5,1177.17 1208.5,1179.83 1208.5,1182.5C 1208.63,1184.22 1208.96,1185.88 1209.5,1187.5C 1208.83,1187.17 1208.17,1186.83 1207.5,1186.5C 1207.5,1182.5 1207.5,1178.5 1207.5,1174.5 Z"/></g>
<g><path style="opacity:1" fill="#b483d1" d="M 527.5,1176.5 C 528.66,1180.68 529.66,1185.01 530.5,1189.5C 530.167,1189.5 529.833,1189.5 529.5,1189.5C 529.598,1187.45 528.931,1185.78 527.5,1184.5C 527.5,1181.83 527.5,1179.17 527.5,1176.5 Z"/></g>
<g><path style="opacity:1" fill="#926bba" d="M 1311.5,1176.5 C 1311.83,1176.5 1312.17,1176.5 1312.5,1176.5C 1312.5,1178.83 1312.5,1181.17 1312.5,1183.5C 1312.5,1183.83 1312.5,1184.17 1312.5,1184.5C 1311.83,1185.17 1311.17,1185.83 1310.5,1186.5C 1310.5,1185.83 1310.5,1185.17 1310.5,1184.5C 1311.27,1181.9 1311.6,1179.24 1311.5,1176.5 Z"/></g>
<g><path style="opacity:1" fill="#d197e5" d="M 1214.5,1195.5 C 1213.83,1195.17 1213.17,1194.83 1212.5,1194.5C 1211.66,1194.16 1211.33,1193.49 1211.5,1192.5C 1211.69,1188.97 1211.02,1185.63 1209.5,1182.5C 1210.5,1182.59 1211.33,1182.25 1212,1181.5C 1212.09,1186.38 1212.92,1191.05 1214.5,1195.5 Z"/></g>
<g><path style="opacity:1" fill="#ae7fcd" d="M 1208.5,1182.5 C 1208.83,1182.5 1209.17,1182.5 1209.5,1182.5C 1211.02,1185.63 1211.69,1188.97 1211.5,1192.5C 1211.17,1192.5 1210.83,1192.5 1210.5,1192.5C 1210.63,1190.71 1210.3,1189.04 1209.5,1187.5C 1208.96,1185.88 1208.63,1184.22 1208.5,1182.5 Z"/></g>
<g><path style="opacity:1" fill="#ae7fcd" d="M 1310.5,1184.5 C 1310.5,1185.17 1310.5,1185.83 1310.5,1186.5C 1309.57,1187.57 1309.23,1188.9 1309.5,1190.5C 1309.5,1190.83 1309.5,1191.17 1309.5,1191.5C 1309.17,1191.5 1308.83,1191.5 1308.5,1191.5C 1308.5,1189.5 1308.5,1187.5 1308.5,1185.5C 1309.17,1185.17 1309.83,1184.83 1310.5,1184.5 Z"/></g>
<g><path style="opacity:1" fill="#a276c5" d="M 630.5,1105.5 C 630.833,1105.5 631.167,1105.5 631.5,1105.5C 631.5,1128.5 631.5,1151.5 631.5,1174.5C 632.198,1180.58 631.198,1186.24 628.5,1191.5C 628.167,1191.5 627.833,1191.5 627.5,1191.5C 627.737,1188.35 628.57,1185.35 630,1182.5C 630.5,1157.5 630.667,1132.5 630.5,1107.5C 630.5,1106.83 630.5,1106.17 630.5,1105.5 Z"/></g>
<g><path style="opacity:1" fill="#7b5bab" d="M 1312.5,1184.5 C 1312.35,1186.97 1311.35,1188.97 1309.5,1190.5C 1309.23,1188.9 1309.57,1187.57 1310.5,1186.5C 1311.17,1185.83 1311.83,1185.17 1312.5,1184.5 Z"/></g>
<g><path style="opacity:1" fill="#7758a8" d="M 1207.5,1186.5 C 1208.17,1186.83 1208.83,1187.17 1209.5,1187.5C 1210.3,1189.04 1210.63,1190.71 1210.5,1192.5C 1209.51,1190.54 1208.51,1188.54 1207.5,1186.5 Z"/></g>
<g><path style="opacity:1" fill="#966ebd" d="M 529.5,1189.5 C 529.833,1189.5 530.167,1189.5 530.5,1189.5C 530.833,1190.83 531.167,1192.17 531.5,1193.5C 531.5,1194.17 531.5,1194.83 531.5,1195.5C 530.069,1194.22 529.402,1192.55 529.5,1190.5C 529.5,1190.17 529.5,1189.83 529.5,1189.5 Z"/></g>
<g><path style="opacity:1" fill="#b383d1" d="M 1308.5,1191.5 C 1307.83,1193.17 1307.17,1194.83 1306.5,1196.5C 1306.5,1196.83 1306.5,1197.17 1306.5,1197.5C 1306.17,1197.5 1305.83,1197.5 1305.5,1197.5C 1305.02,1194.69 1306.02,1192.69 1308.5,1191.5 Z"/></g>
<g><path style="opacity:1" fill="#b282d0" d="M 627.5,1191.5 C 627.771,1193.38 627.104,1194.71 625.5,1195.5C 625.66,1193.85 626.326,1192.51 627.5,1191.5 Z"/></g>
<g><path style="opacity:1" fill="#8562b1" d="M 627.5,1191.5 C 627.833,1191.5 628.167,1191.5 628.5,1191.5C 628.747,1193.86 628.081,1195.86 626.5,1197.5C 626.167,1197.5 625.833,1197.5 625.5,1197.5C 625.5,1196.83 625.5,1196.17 625.5,1195.5C 627.104,1194.71 627.771,1193.38 627.5,1191.5 Z"/></g>
<g><path style="opacity:1" fill="#af81cf" d="M 531.5,1193.5 C 532.906,1193.97 533.573,1194.97 533.5,1196.5C 532.833,1196.17 532.167,1195.83 531.5,1195.5C 531.5,1194.83 531.5,1194.17 531.5,1193.5 Z"/></g>
<g><path style="opacity:1" fill="#795aaa" d="M 1210.5,1192.5 C 1210.83,1192.5 1211.17,1192.5 1211.5,1192.5C 1211.33,1193.49 1211.66,1194.16 1212.5,1194.5C 1212.5,1195.17 1212.5,1195.83 1212.5,1196.5C 1210.82,1195.82 1210.16,1194.48 1210.5,1192.5 Z"/></g>
<g><path style="opacity:1" fill="#8764b3" d="M 1308.5,1191.5 C 1308.83,1191.5 1309.17,1191.5 1309.5,1191.5C 1309.76,1193.99 1308.76,1195.66 1306.5,1196.5C 1307.17,1194.83 1307.83,1193.17 1308.5,1191.5 Z"/></g>
<g><path style="opacity:1" fill="#aa7dcb" d="M 1212.5,1194.5 C 1213.17,1194.83 1213.83,1195.17 1214.5,1195.5C 1214.5,1196.17 1214.5,1196.83 1214.5,1197.5C 1213.83,1197.17 1213.17,1196.83 1212.5,1196.5C 1212.5,1195.83 1212.5,1195.17 1212.5,1194.5 Z"/></g>
<g><path style="opacity:1" fill="#8a66b5" d="M 1212.5,1196.5 C 1213.17,1196.83 1213.83,1197.17 1214.5,1197.5C 1214.5,1198.17 1214.5,1198.83 1214.5,1199.5C 1213.09,1199.03 1212.43,1198.03 1212.5,1196.5 Z"/></g>
<g><path style="opacity:1" fill="#9970bf" d="M 531.5,1195.5 C 532.167,1195.83 532.833,1196.17 533.5,1196.5C 534.5,1198.5 535.5,1200.5 536.5,1202.5C 535.833,1202.17 535.167,1201.83 534.5,1201.5C 532.75,1199.94 531.75,1197.94 531.5,1195.5 Z"/></g>
<g><path style="opacity:1" fill="#a87bc9" d="M 625.5,1195.5 C 625.5,1196.17 625.5,1196.83 625.5,1197.5C 624.5,1199.5 623.5,1201.5 622.5,1203.5C 620.738,1204.26 619.738,1205.6 619.5,1207.5C 617.833,1208.83 616.167,1210.17 614.5,1211.5C 618.174,1206.16 621.841,1200.83 625.5,1195.5 Z"/></g>
<g><path style="opacity:1" fill="#6b50a1" d="M 625.5,1197.5 C 625.833,1197.5 626.167,1197.5 626.5,1197.5C 626.658,1200.52 625.325,1202.52 622.5,1203.5C 623.5,1201.5 624.5,1199.5 625.5,1197.5 Z"/></g>
<g><path style="opacity:1" fill="#805fae" d="M 534.5,1201.5 C 535.167,1201.83 535.833,1202.17 536.5,1202.5C 536.5,1203.17 536.5,1203.83 536.5,1204.5C 535.094,1204.03 534.427,1203.03 534.5,1201.5 Z"/></g>
<g><path style="opacity:1" fill="#a87cca" d="M 536.5,1202.5 C 538.587,1203.58 539.92,1205.25 540.5,1207.5C 539.167,1206.5 537.833,1205.5 536.5,1204.5C 536.5,1203.83 536.5,1203.17 536.5,1202.5 Z"/></g>
<g><path style="opacity:1" fill="#a176c4" d="M 1214.5,1199.5 C 1216.59,1200.58 1217.92,1202.25 1218.5,1204.5C 1217.5,1203.83 1216.5,1203.17 1215.5,1202.5C 1214.89,1201.61 1214.56,1200.61 1214.5,1199.5 Z"/></g>
<g><path style="opacity:1" fill="#7c5bab" d="M 622.5,1203.5 C 622.262,1205.4 621.262,1206.74 619.5,1207.5C 619.738,1205.6 620.738,1204.26 622.5,1203.5 Z"/></g>
<g><path style="opacity:1" fill="#7c5bab" d="M 1215.5,1202.5 C 1216.5,1203.17 1217.5,1203.83 1218.5,1204.5C 1218.83,1205.17 1219.17,1205.83 1219.5,1206.5C 1219.5,1206.83 1219.5,1207.17 1219.5,1207.5C 1217.41,1206.42 1216.08,1204.75 1215.5,1202.5 Z"/></g>
<g><path style="opacity:1" fill="#b886d4" d="M 1218.5,1204.5 C 1220.5,1204.5 1221.5,1205.5 1221.5,1207.5C 1220.83,1207.17 1220.17,1206.83 1219.5,1206.5C 1219.17,1205.83 1218.83,1205.17 1218.5,1204.5 Z"/></g>
<g><path style="opacity:1" fill="#8160af" d="M 536.5,1204.5 C 537.833,1205.5 539.167,1206.5 540.5,1207.5C 540.833,1208.5 541.5,1209.17 542.5,1209.5C 542.5,1210.17 542.5,1210.83 542.5,1211.5C 539.757,1209.76 537.757,1207.43 536.5,1204.5 Z"/></g>
<g><path style="opacity:1" fill="#c38ddb" d="M 1221.5,1207.5 C 1223.83,1207.83 1225.17,1209.17 1225.5,1211.5C 1223.83,1210.5 1222.5,1209.17 1221.5,1207.5 Z"/></g>
<g><path style="opacity:1" fill="#af80ce" d="M 1305.5,1198.5 C 1302.63,1203.55 1299.13,1208.22 1295,1212.5C 1293.26,1213.76 1291.43,1214.76 1289.5,1215.5C 1294.94,1209.74 1300.27,1204.07 1305.5,1198.5 Z"/></g>
<g><path style="opacity:1" fill="#c38edc" d="M 540.5,1207.5 C 542.179,1207.29 543.179,1207.95 543.5,1209.5C 543.167,1209.5 542.833,1209.5 542.5,1209.5C 541.5,1209.17 540.833,1208.5 540.5,1207.5 Z"/></g>
<g><path style="opacity:1" fill="#b382d0" d="M 1225.5,1211.5 C 1228.43,1212.76 1230.76,1214.76 1232.5,1217.5C 1231.83,1217.5 1231.17,1217.5 1230.5,1217.5C 1228.83,1215.5 1227.17,1213.5 1225.5,1211.5 Z"/></g>
<g><path style="opacity:1" fill="#966fbd" d="M 542.5,1209.5 C 542.833,1209.5 543.167,1209.5 543.5,1209.5C 545.5,1211.83 547.5,1214.17 549.5,1216.5C 546.907,1215.25 544.573,1213.58 542.5,1211.5C 542.5,1210.83 542.5,1210.17 542.5,1209.5 Z"/></g>
<g><path style="opacity:1" fill="#c48edc" d="M 543.5,1209.5 C 546.764,1211.09 549.431,1213.43 551.5,1216.5C 550.833,1216.5 550.167,1216.5 549.5,1216.5C 547.5,1214.17 545.5,1211.83 543.5,1209.5 Z"/></g>
<g><path style="opacity:1" fill="#aa7cca" d="M 614.5,1211.5 C 613.564,1212.97 612.23,1213.97 610.5,1214.5C 611.035,1212.55 612.368,1211.55 614.5,1211.5 Z"/></g>
<g><path style="opacity:1" fill="#8764b3" d="M 1219.5,1206.5 C 1220.17,1206.83 1220.83,1207.17 1221.5,1207.5C 1222.5,1209.17 1223.83,1210.5 1225.5,1211.5C 1227.17,1213.5 1228.83,1215.5 1230.5,1217.5C 1226.23,1214.9 1222.56,1211.57 1219.5,1207.5C 1219.5,1207.17 1219.5,1206.83 1219.5,1206.5 Z"/></g>
<g><path style="opacity:1" fill="#7859a9" d="M 1305.5,1197.5 C 1305.83,1197.5 1306.17,1197.5 1306.5,1197.5C 1305.95,1199.9 1305.12,1202.23 1304,1204.5C 1300.96,1207.2 1298.3,1210.2 1296,1213.5C 1292.86,1215.65 1289.69,1217.65 1286.5,1219.5C 1287.5,1218.17 1288.5,1216.83 1289.5,1215.5C 1291.43,1214.76 1293.26,1213.76 1295,1212.5C 1299.13,1208.22 1302.63,1203.55 1305.5,1198.5C 1305.5,1198.17 1305.5,1197.83 1305.5,1197.5 Z"/></g>
<g><path style="opacity:1" fill="#a479c7" d="M 608.5,1215.5 C 607.5,1216.83 606.5,1218.17 605.5,1219.5C 604.833,1219.5 604.167,1219.5 603.5,1219.5C 603.5,1219.17 603.5,1218.83 603.5,1218.5C 604.922,1217.08 606.589,1216.08 608.5,1215.5 Z"/></g>
<g><path style="opacity:1" fill="#906ab9" d="M 549.5,1216.5 C 550.167,1216.5 550.833,1216.5 551.5,1216.5C 551.973,1217.91 552.973,1218.57 554.5,1218.5C 555.167,1218.5 555.5,1218.83 555.5,1219.5C 552.687,1219.98 550.687,1218.98 549.5,1216.5 Z"/></g>
<g><path style="opacity:1" fill="#b785d3" d="M 551.5,1216.5 C 553.027,1216.43 554.027,1217.09 554.5,1218.5C 552.973,1218.57 551.973,1217.91 551.5,1216.5 Z"/></g>
<g><path style="opacity:1" fill="#7c5cab" d="M 619.5,1207.5 C 618.457,1210.06 616.79,1212.22 614.5,1214C 611.333,1215.69 608.333,1217.52 605.5,1219.5C 606.5,1218.17 607.5,1216.83 608.5,1215.5C 609.167,1215.17 609.833,1214.83 610.5,1214.5C 612.23,1213.97 613.564,1212.97 614.5,1211.5C 616.167,1210.17 617.833,1208.83 619.5,1207.5 Z"/></g>
<g><path style="opacity:1" fill="#7c5cab" d="M 1230.5,1217.5 C 1231.17,1217.5 1231.83,1217.5 1232.5,1217.5C 1232.83,1218.17 1233.17,1218.83 1233.5,1219.5C 1231.97,1219.57 1230.97,1218.91 1230.5,1217.5 Z"/></g>
<g><path style="opacity:1" fill="#bc89d7" d="M 603.5,1218.5 C 603.5,1218.83 603.5,1219.17 603.5,1219.5C 600.994,1220.75 598.327,1221.42 595.5,1221.5C 597.755,1219.62 600.422,1218.62 603.5,1218.5 Z"/></g>
<g><path style="opacity:1" fill="#a377c5" d="M 1232.5,1217.5 C 1233.17,1217.5 1233.83,1217.5 1234.5,1217.5C 1236.08,1218.14 1237.41,1219.14 1238.5,1220.5C 1237.83,1220.5 1237.17,1220.5 1236.5,1220.5C 1235.39,1220.44 1234.39,1220.11 1233.5,1219.5C 1233.17,1218.83 1232.83,1218.17 1232.5,1217.5 Z"/></g>
<g><path style="opacity:1" fill="#c892df" d="M 1282.5,1218.5 C 1281.69,1219.73 1280.69,1220.73 1279.5,1221.5C 1278.5,1221.5 1277.5,1221.5 1276.5,1221.5C 1278.03,1219.75 1280.03,1218.75 1282.5,1218.5 Z"/></g>
<g><path style="opacity:1" fill="#9a72c0" d="M 1289.5,1215.5 C 1288.5,1216.83 1287.5,1218.17 1286.5,1219.5C 1286.17,1219.5 1285.83,1219.5 1285.5,1219.5C 1283.69,1220.63 1281.69,1221.3 1279.5,1221.5C 1280.69,1220.73 1281.69,1219.73 1282.5,1218.5C 1285.04,1217.96 1287.37,1216.96 1289.5,1215.5 Z"/></g>
<g><path style="opacity:1" fill="#946dbc" d="M 555.5,1219.5 C 557.746,1220.46 560.079,1221.12 562.5,1221.5C 562.5,1221.83 562.5,1222.17 562.5,1222.5C 561.167,1222.5 559.833,1222.5 558.5,1222.5C 556.5,1222.5 555.5,1221.5 555.5,1219.5 Z"/></g>
<g><path style="opacity:1" fill="#9e74c2" d="M 603.5,1219.5 C 603.167,1220.17 602.833,1220.83 602.5,1221.5C 599.67,1221.96 597.003,1222.63 594.5,1223.5C 593.833,1223.5 593.167,1223.5 592.5,1223.5C 592.821,1221.95 593.821,1221.29 595.5,1221.5C 598.327,1221.42 600.994,1220.75 603.5,1219.5 Z"/></g>
<g><path style="opacity:1" fill="#8361b0" d="M 1236.5,1220.5 C 1237.17,1220.5 1237.83,1220.5 1238.5,1220.5C 1238.5,1221.17 1238.83,1221.5 1239.5,1221.5C 1239.5,1221.83 1239.5,1222.17 1239.5,1222.5C 1237.97,1222.57 1236.97,1221.91 1236.5,1220.5 Z"/></g>
<g><path style="opacity:1" fill="#bf8bd9" d="M 562.5,1222.5 C 562.5,1222.17 562.5,1221.83 562.5,1221.5C 571.357,1223.3 580.357,1223.97 589.5,1223.5C 582.687,1224.49 575.687,1224.82 568.5,1224.5C 566.5,1223.83 564.5,1223.17 562.5,1222.5 Z"/></g>
<g><path style="opacity:1" fill="#c690dd" d="M 1234.5,1217.5 C 1240.27,1219.65 1246.27,1221.48 1252.5,1223C 1256.82,1223.5 1261.15,1223.67 1265.5,1223.5C 1265.5,1223.83 1265.5,1224.17 1265.5,1224.5C 1259.49,1224.67 1253.49,1224.5 1247.5,1224C 1245.14,1222.27 1242.47,1221.44 1239.5,1221.5C 1238.83,1221.5 1238.5,1221.17 1238.5,1220.5C 1237.41,1219.14 1236.08,1218.14 1234.5,1217.5 Z"/></g>
<g><path style="opacity:1" fill="#a87bc9" d="M 1276.5,1221.5 C 1277.5,1221.5 1278.5,1221.5 1279.5,1221.5C 1276.67,1222.73 1273.67,1223.73 1270.5,1224.5C 1268.83,1224.5 1267.17,1224.5 1265.5,1224.5C 1265.5,1224.17 1265.5,1223.83 1265.5,1223.5C 1269.25,1223.25 1272.92,1222.58 1276.5,1221.5 Z"/></g>
<g><path style="opacity:1" fill="#936cbb" d="M 589.5,1223.5 C 590.5,1223.5 591.5,1223.5 592.5,1223.5C 593.167,1223.5 593.833,1223.5 594.5,1223.5C 593.486,1224.67 592.153,1225.34 590.5,1225.5C 582.981,1225.82 575.648,1225.49 568.5,1224.5C 575.687,1224.82 582.687,1224.49 589.5,1223.5 Z"/></g>
<g><path style="opacity:1" fill="#9970bf" d="M 1239.5,1222.5 C 1239.5,1222.17 1239.5,1221.83 1239.5,1221.5C 1242.47,1221.44 1245.14,1222.27 1247.5,1224C 1253.49,1224.5 1259.49,1224.67 1265.5,1224.5C 1267.17,1224.5 1268.83,1224.5 1270.5,1224.5C 1263.35,1225.49 1256.02,1225.82 1248.5,1225.5C 1245.37,1224.76 1242.37,1223.76 1239.5,1222.5 Z"/></g>
<g><path style="opacity:1" fill="#7255a5" d="M 1285.5,1219.5 C 1284.71,1220.79 1283.71,1221.96 1282.5,1223C 1271.26,1226.55 1259.93,1227.38 1248.5,1225.5C 1256.02,1225.82 1263.35,1225.49 1270.5,1224.5C 1273.67,1223.73 1276.67,1222.73 1279.5,1221.5C 1281.69,1221.3 1283.69,1220.63 1285.5,1219.5 Z"/></g>
<g><path style="opacity:1" fill="#7758a8" d="M 558.5,1222.5 C 559.833,1222.5 561.167,1222.5 562.5,1222.5C 564.5,1223.17 566.5,1223.83 568.5,1224.5C 575.648,1225.49 582.981,1225.82 590.5,1225.5C 590.5,1225.83 590.5,1226.17 590.5,1226.5C 582.16,1226.67 573.827,1226.5 565.5,1226C 563.287,1224.38 560.953,1223.22 558.5,1222.5 Z"/></g>
<g><path style="opacity:1" fill="#654c9c" d="M 602.5,1221.5 C 600.44,1223.15 598.107,1224.65 595.5,1226C 593.866,1226.49 592.199,1226.66 590.5,1226.5C 590.5,1226.17 590.5,1225.83 590.5,1225.5C 592.153,1225.34 593.486,1224.67 594.5,1223.5C 597.003,1222.63 599.67,1221.96 602.5,1221.5 Z"/></g>
<g><path style="opacity:1" fill="#533f90" d="M 563.5,1227.5 C 574.33,1227.03 584.997,1227.53 595.5,1229C 584.5,1229.67 573.5,1229.67 562.5,1229C 563.056,1228.62 563.389,1228.12 563.5,1227.5 Z"/></g>
<g><path style="opacity:1" fill="#533f90" d="M 1244.5,1227.5 C 1255.33,1227.03 1266,1227.53 1276.5,1229C 1265.5,1229.67 1254.5,1229.67 1243.5,1229C 1244.06,1228.62 1244.39,1228.12 1244.5,1227.5 Z"/></g>
<g><path style="opacity:1" fill="#5b4596" d="M 245.5,1520.5 C 246.5,1521.17 247.5,1521.83 248.5,1522.5C 248.414,1523.5 248.748,1524.33 249.5,1525C 254.155,1528.84 259.155,1532.01 264.5,1534.5C 270.594,1538.03 277.26,1539.86 284.5,1540C 707.833,1540.67 1131.17,1540.67 1554.5,1540C 1558.8,1539.92 1562.8,1539.09 1566.5,1537.5C 1573.24,1536.3 1578.91,1533.3 1583.5,1528.5C 1585.6,1527.59 1587.6,1526.42 1589.5,1525C 1590.25,1524.33 1590.59,1523.5 1590.5,1522.5C 1591.5,1521.83 1592.5,1521.17 1593.5,1520.5C 1593.29,1521.92 1592.79,1523.26 1592,1524.5C 1581.49,1534.5 1568.99,1540.34 1554.5,1542C 1342.83,1542.17 1131.17,1542.33 919.5,1542.5C 707.833,1542.33 496.167,1542.17 284.5,1542C 271.247,1540.54 259.581,1535.54 249.5,1527C 247.266,1525.36 245.933,1523.2 245.5,1520.5 Z"/></g>
<g><path style="opacity:1" fill="#624d9d" d="M 1583.5,1528.5 C 1578.91,1533.3 1573.24,1536.3 1566.5,1537.5C 1136.52,1538.66 706.521,1538.83 276.5,1538C 275.584,1537.72 274.918,1537.22 274.5,1536.5C 704.5,1536.67 1134.5,1536.5 1564.5,1536C 1565.17,1535.33 1565.83,1534.67 1566.5,1534C 1572.38,1532.72 1578.04,1530.89 1583.5,1528.5 Z"/></g>
<g><path style="opacity:1" fill="#5f4a9a" d="M 264.5,1534.5 C 267.877,1534.96 271.211,1535.63 274.5,1536.5C 274.918,1537.22 275.584,1537.72 276.5,1538C 706.521,1538.83 1136.52,1538.66 1566.5,1537.5C 1562.8,1539.09 1558.8,1539.92 1554.5,1540C 1131.17,1540.67 707.833,1540.67 284.5,1540C 277.26,1539.86 270.594,1538.03 264.5,1534.5 Z"/></g>
</svg>
